Fixed-Medium.sfdir
StartChar: exclam
Encoding: 33 33 1
Width: 500
Flags: MW
LayerCount: 2
Fore
SplineSet
197 53 m 0
 197 84 223 106 250 106 c 0
 277 106 302 84 302 53 c 0
 302 22 276 1 250 1 c 0
 219 1 197 27 197 53 c 0
197 664 m 0
 197 698 225 716 250 716 c 0
 276 716 303 697 303 664 c 0
 303 661 302 657 302 653 c 2
 264 211 l 2
 263 197 260 188 249 188 c 0
 238 188 237 202 236 215 c 2
 198 650 l 2
 198 655 197 660 197 664 c 0
EndSplineSet
EndChar
StartChar: numbersign
Encoding: 35 35 3
Width: 500
Flags: MW
LayerCount: 2
Fore
SplineSet
27 153 m 0
 26 164 41 164 52 164 c 2
 127 164 l 1
 159 336 l 1
 51 336 l 2
 40 336 28 337 27 347 c 0
 26 358 42 359 56 359 c 2
 164 359 l 1
 219 655 l 2
 222 669 223 692 235 692 c 0
 242 692 245 687 246 680 c 0
 247 670 243 658 242 650 c 2
 188 359 l 1
 353 359 l 1
 408 655 l 2
 411 669 412 692 423 692 c 0
 430 692 434 687 435 680 c 0
 436 670 432 658 430 650 c 2
 376 359 l 1
 446 359 l 2
 457 359 470 358 472 347 c 1
 472 336 458 336 447 336 c 2
 371 336 l 1
 340 164 l 1
 447 164 l 2
 458 164 471 163 472 153 c 0
 473 142 457 141 443 141 c 2
 335 141 l 1
 279 -155 l 2
 277 -169 275 -192 263 -192 c 0
 256 -192 254 -187 253 -180 c 0
 252 -171 255 -158 256 -150 c 2
 311 141 l 1
 146 141 l 1
 91 -155 l 2
 88 -169 86 -192 75 -192 c 0
 67 -192 65 -187 64 -180 c 0
 63 -171 66 -158 68 -150 c 2
 123 141 l 1
 53 141 l 2
 42 141 28 142 27 153 c 0
151 164 m 1
 316 164 l 1
 348 336 l 1
 183 336 l 1
 151 164 l 1
EndSplineSet
EndChar
StartChar: percent
Encoding: 37 37 5
Width: 500
Flags: MW
LayerCount: 2
Fore
SplineSet
33 549 m 0
 33 689 79 750 123 750 c 0
 140 750 153 739 164 724 c 0
 180 702 221 644 282 644 c 0
 328 644 362 679 385 731 c 0
 389 741 393 750 401 750 c 0
 408 750 422 746 422 732 c 0
 422 722 420 717 416 708 c 2
 113 -40 l 2
 109 -50 107 -56 100 -56 c 0
 91 -56 78 -51 78 -40 c 0
 78 -29 84 -16 84 -15 c 2
 352 651 l 1
 352 651 l 5
 334 631 294 623 283 623 c 0
 257 623 222 631 188 661 c 1
 196 618 200 566 200 548 c 0
 200 406 162 347 123 347 c 0
 81 347 33 404 33 549 c 0
87 548 m 0
 87 486 87 368 124 368 c 0
 144 368 176 418 176 549 c 0
 176 673 146 729 124 729 c 0
 87 729 87 611 87 548 c 0
300 146 m 0
 300 286 346 347 390 347 c 0
 427 347 467 292 467 145 c 0
 467 3 429 -56 390 -56 c 0
 348 -56 300 1 300 146 c 0
354 145 m 0
 354 83 354 -35 391 -35 c 0
 411 -35 442 15 442 146 c 0
 442 270 413 326 391 326 c 0
 354 326 354 208 354 145 c 0
EndSplineSet
EndChar
StartChar: ampersand
Encoding: 38 38 6
Width: 500
Flags: MW
LayerCount: 2
Fore
SplineSet
27 136 m 0
 27 165 33 191 44 215 c 0
 49 225 66 251 78 269 c 1
 122 339 l 1
 104 412 98 477 98 533 c 0
 98 646 151 707 196 707 c 0
 240 707 257 629 257 577 c 0
 257 539 241 498 226 467 c 0
 210 436 187 395 178 380 c 1
 201 290 243 182 273 126 c 5
 311 191 346 296 379 381 c 0
 380 385 382 391 383 396 c 1
 372 409 357 413 342 413 c 1
 342 441 l 1
 358 439 406 438 412 438 c 0
 425 438 449 439 468 441 c 1
 468 413 l 1
 438 413 420 410 411 390 c 1
 409 387 370 272 368 266 c 1
 342 197 316 146 290 98 c 5
 315 55 348 16 376 16 c 0
 390 16 438 43 440 119 c 1
 465 119 l 1
 463 35 419 -13 373 -13 c 0
 320 -13 277 27 256 52 c 1
 224 13 186 -13 144 -13 c 0
 82 -13 27 44 27 136 c 0
95 171 m 0
 95 137 102 16 150 16 c 0
 156 16 196 32 235 79 c 1
 211 112 191 152 175 187 c 0
 155 232 142 270 131 307 c 1
 106 273 95 225 95 171 c 0
153 568 m 0
 153 512 161 453 170 414 c 1
 204 467 233 528 233 577 c 0
 233 601 226 689 197 689 c 0
 181 689 153 651 153 568 c 0
EndSplineSet
EndChar
StartChar: quotesingle
Encoding: 39 39 7
Width: 500
Flags: MW
LayerCount: 2
Fore
SplineSet
204 664 m 0
 204 697 229 710 250 710 c 0
 268 710 296 700 296 664 c 0
 296 655 294 639 293 627 c 2
 262 347 l 1
 239 347 l 1
 205 649 l 2
 205 654 204 659 204 664 c 0
EndSplineSet
EndChar
StartChar: parenleft
Encoding: 40 40 8
Width: 500
Flags: MW
LayerCount: 2
Fore
SplineSet
184 250 m 4
 184 334 196 445 247 555 c 4
 306 682 396 750 406 750 c 4
 412 750 416 747 416 740 c 4
 416 737 416 735 403 723 c 4
 280 598 242 424 242 250 c 4
 242 173 250 87 274 4 c 4
 297 -78 337 -156 399 -218 c 4
 416 -235 416 -237 416 -240 c 4
 416 -247 412 -250 406 -250 c 4
 396 -250 310 -185 250 -62 c 4
 195 51 184 172 184 250 c 4
EndSplineSet
EndChar
StartChar: parenright
Encoding: 41 41 9
Width: 500
Flags: MW
LayerCount: 2
Fore
SplineSet
84 -240 m 4
 84 -237 84 -235 97 -223 c 4
 221 -97 258 79 258 250 c 4
 258 459 201 618 103 717 c 4
 84 735 84 737 84 740 c 4
 84 746 88 750 94 750 c 4
 104 750 190 685 250 562 c 4
 305 449 316 328 316 250 c 4
 316 166 304 55 253 -55 c 4
 194 -182 104 -250 94 -250 c 4
 88 -250 84 -246 84 -240 c 4
EndSplineSet
EndChar
StartChar: plus
Encoding: 43 43 11
Width: 500
Flags: MW
LayerCount: 2
Fore
SplineSet
39 250 m 0
 39 261 51 261 77 261 c 2
 239 261 l 1
 239 544 l 2
 239 547 238 552 238 557 c 0
 238 568 240 581 250 581 c 0
 257 581 260 574 261 566 c 0
 261 563 262 560 262 557 c 2
 262 261 l 1
 424 261 l 2
 427 261 432 262 438 262 c 0
 449 262 461 260 461 250 c 0
 461 240 449 238 437 238 c 0
 432 238 427 239 424 239 c 2
 262 239 l 1
 262 -58 l 2
 262 -69 260 -81 250 -81 c 0
 240 -81 238 -68 238 -57 c 0
 238 -52 239 -47 239 -44 c 2
 239 239 l 1
 77 239 l 2
 73 239 68 238 62 238 c 0
 51 238 39 240 39 250 c 0
EndSplineSet
EndChar
StartChar: comma
Encoding: 44 44 12
Width: 500
Flags: MW
LayerCount: 2
Fore
SplineSet
192 53 m 0
 192 79 209 106 244 106 c 0
 284 106 308 65 308 1 c 0
 308 -114 230 -193 218 -193 c 0
 213 -193 208 -189 208 -182 c 0
 208 -178 208 -177 214 -171 c 0
 258 -124 286 -63 286 1 c 0
 286 15 285 16 284 16 c 2
 282 14 l 1
 272 6 260 0 244 0 c 0
 208 0 192 27 192 53 c 0
EndSplineSet
EndChar
StartChar: hyphen
Encoding: 45 45 13
Width: 500
Flags: MW
LayerCount: 2
Fore
SplineSet
117 186 m 1
 117 245 l 1
 383 245 l 1
 383 186 l 1
 117 186 l 1
EndSplineSet
EndChar
StartChar: period
Encoding: 46 46 14
Width: 500
Flags: MW
LayerCount: 2
Fore
SplineSet
198 53 m 0
 198 80 219 105 250 105 c 0
 277 105 302 84 302 53 c 0
 302 22 276 0 250 0 c 0
 219 0 198 26 198 53 c 0
EndSplineSet
EndChar
StartChar: slash
Encoding: 47 47 15
Width: 500
Flags: MW
LayerCount: 2
Fore
SplineSet
57 -236 m 0
 57 -233 57 -231 61 -220 c 2
 414 723 l 2
 417 730 421 748 432 748 c 0
 436 748 442 744 442 736 c 0
 442 732 440 727 439 723 c 2
 85 -221 l 2
 77 -243 74 -248 66 -248 c 0
 60 -248 57 -242 57 -236 c 0
EndSplineSet
EndChar
StartChar: five
Encoding: 53 53 21
Width: 500
Flags: MW
LayerCount: 2
Fore
SplineSet
50 161 m 0
 50 207 85 214 99 214 c 0
 132 214 149 189 149 165 c 0
 149 141 132 116 99 116 c 0
 88 116 85 117 82 118 c 1
 99 59 156 6 229 6 c 0
 275 6 312 32 336 71 c 1
 360 113 360 173 360 208 c 0
 360 258 358 297 342 334 c 0
 334 352 309 398 257 398 c 0
 176 398 139 344 128 328 c 0
 124 322 122 319 115 319 c 0
 101 319 101 327 101 345 c 2
 101 641 l 2
 101 657 101 665 111 665 c 0
 113 665 115 665 123 662 c 0
 170 641 216 634 256 634 c 0
 323 634 372 654 392 663 c 0
 397 666 399 666 400 666 c 0
 407 666 410 661 410 655 c 0
 410 642 340 551 217 551 c 0
 185 551 152 558 132 564 c 1
 132 369 l 1
 168 404 211 420 259 420 c 0
 367 420 449 320 449 201 c 0
 449 74 347 -22 231 -22 c 0
 119 -22 50 75 50 161 c 0
EndSplineSet
EndChar
StartChar: colon
Encoding: 58 58 26
Width: 500
Flags: MW
LayerCount: 2
Fore
SplineSet
197 53 m 0
 197 82 221 106 250 106 c 0
 279 106 303 82 303 53 c 0
 303 24 279 0 250 0 c 0
 221 0 197 24 197 53 c 0
197 378 m 0
 197 407 221 431 250 431 c 0
 279 431 303 407 303 378 c 0
 303 349 279 325 250 325 c 0
 221 325 197 349 197 378 c 0
EndSplineSet
EndChar
StartChar: semicolon
Encoding: 59 59 27
Width: 500
Flags: MW
LayerCount: 2
Fore
SplineSet
192 53 m 4
 192 79 210 106 245 106 c 4
 285 106 309 65 309 1 c 4
 309 -114 230 -193 218 -193 c 4
 213 -193 208 -189 208 -182 c 4
 208 -178 209 -177 215 -171 c 4
 259 -124 287 -63 287 1 c 4
 287 15 286 16 285 16 c 6
 283 14 l 5
 273 6 261 0 245 0 c 4
 209 0 192 27 192 53 c 4
191 378 m 0
 191 405 213 430 244 430 c 0
 271 430 296 409 296 378 c 0
 296 347 270 325 244 325 c 0
 213 325 191 351 191 378 c 0
EndSplineSet
EndChar
StartChar: less
Encoding: 60 60 28
Width: 500
Flags: MW
LayerCount: 2
Fore
SplineSet
55 250 m 1
 56 259 61 263 65 266 c 2
 422 519 l 2
 427 523 433 529 438 529 c 0
 441 529 445 525 445 519 c 0
 445 510 438 506 430 500 c 2
 116 276 l 2
 104 268 92 259 79 250 c 1
 92 241 104 232 116 224 c 2
 430 0 l 2
 442 -8 445 -11 445 -19 c 0
 445 -25 441 -29 438 -29 c 0
 433 -29 427 -23 422 -19 c 2
 65 234 l 2
 61 237 56 241 55 250 c 1
EndSplineSet
EndChar
StartChar: equal
Encoding: 61 61 29
Width: 500
Flags: MW
LayerCount: 2
Fore
SplineSet
37 152 m 1
 38 164 44 164 50 164 c 2
 444 164 l 2
 452 164 463 165 463 153 c 0
 463 141 452 141 445 141 c 2
 54 141 l 2
 47 141 37 142 37 152 c 1
37 347 m 0
 37 352 38 359 50 359 c 2
 443 359 l 1
 451 358 463 359 463 347 c 0
 463 336 454 336 447 336 c 2
 50 336 l 2
 44 336 37 337 37 347 c 0
EndSplineSet
EndChar
StartChar: greater
Encoding: 62 62 30
Width: 500
Flags: MW
LayerCount: 2
Fore
SplineSet
55 -19 m 0
 55 -11 58 -8 70 0 c 2
 384 224 l 2
 396 232 408 241 421 250 c 1
 408 259 396 268 384 276 c 2
 70 500 l 2
 63 505 55 510 55 519 c 0
 55 524 58 529 62 529 c 0
 67 529 73 523 78 519 c 2
 435 266 l 2
 438 263 445 259 445 250 c 0
 444 241 441 238 427 228 c 2
 78 -19 l 2
 73 -23 67 -29 62 -29 c 0
 58 -29 55 -25 55 -19 c 0
EndSplineSet
EndChar
StartChar: question
Encoding: 63 63 31
Width: 500
Flags: MW
LayerCount: 2
Fore
SplineSet
70 572 m 0
 70 637 132 705 240 705 c 0
 389 705 430 628 430 570 c 0
 430 528 409 492 382 472 c 0
 347 446 250 375 250 249 c 2
 250 214 l 2
 250 196 249 187 236 187 c 0
 224 187 224 193 224 211 c 2
 224 256 l 2
 224 317 246 409 312 481 c 1
 330 499 346 517 346 576 c 0
 346 615 347 683 238 683 c 0
 196 683 137 668 106 615 c 1
 120 615 162 615 162 570 c 0
 162 544 144 524 116 524 c 0
 93 524 70 538 70 572 c 0
184 53 m 0
 184 82 207 106 236 106 c 0
 265 106 290 82 290 53 c 0
 290 24 265 0 236 0 c 0
 207 0 184 24 184 53 c 0
EndSplineSet
EndChar
StartChar: at
Encoding: 64 64 32
Width: 500
Flags: MW
LayerCount: 2
Fore
SplineSet
36 347 m 0
 36 546 117 701 251 701 c 0
 377 701 465 561 465 344 c 0
 465 275 459 128 393 128 c 0
 377 128 339 135 324 178 c 1
 303 144 276 128 249 128 c 0
 174 128 122 217 122 347 c 0
 122 478 175 566 249 566 c 0
 289 566 321 533 340 483 c 1
 341 482 340 482 342 482 c 1
 362 482 l 2
 378 482 379 480 379 454 c 2
 379 222 l 2
 379 208 379 146 398 146 c 0
 433 146 440 248 440 338 c 0
 440 563 350 683 250 683 c 0
 134 683 60 534 60 347 c 0
 60 175 125 11 252 11 c 0
 309 11 397 47 433 84 c 0
 438 90 440 90 446 90 c 2
 454 90 l 2
 460 90 464 90 464 77 c 0
 464 73 462 68 462 67 c 0
 452 57 410 30 363 13 c 0
 330 1 292 -7 253 -7 c 0
 107 -7 36 162 36 347 c 0
182 347 m 0
 182 222 215 146 251 146 c 0
 269 146 298 173 317 221 c 1
 319 225 318 226 318 230 c 1
 318 464 l 1
 318 468 318 468 317 472 c 1
 299 518 271 548 251 548 c 0
 215 548 182 472 182 347 c 0
EndSplineSet
EndChar
StartChar: A
Encoding: 65 65 33
Width: 500
Flags: MW
LayerCount: 2
Fore
SplineSet
23 0 m 1
 23 29 l 1
 25 29 36 29 37 29 c 1
 77 30 82 41 87 61 c 2
 229 677 l 2
 233 694 235 702 250 702 c 0
 260 702 266 700 272 677 c 2
 419 37 l 1
 420 30 468 29 475 29 c 1
 477 29 l 1
 477 0 l 1
 455 3 408 3 384 3 c 0
 359 3 306 3 284 0 c 1
 284 29 l 1
 287 29 338 29 338 35 c 1
 338 36 338 37 338 38 c 1
 301 208 l 1
 149 208 l 1
 118 62 l 2
 118 61 116 50 116 49 c 0
 116 33 160 29 167 29 c 1
 167 0 l 1
 146 3 113 3 91 3 c 0
 72 3 44 1 23 0 c 1
156 237 m 1
 294 237 l 1
 225 531 l 1
 156 237 l 1
EndSplineSet
EndChar
StartChar: B
Encoding: 66 66 34
Width: 500
Flags: MW
LayerCount: 2
Fore
SplineSet
24 0 m 1
 24 29 l 1
 27 29 l 1
 37 29 91 31 91 38 c 1
 91 647 l 1
 91 654 37 657 27 657 c 1
 24 657 l 1
 24 685 l 1
 289 685 l 2
 386 685 441 605 441 514 c 0
 441 438 400 377 333 358 c 1
 407 348 461 279 461 185 c 0
 461 88 407 0 307 0 c 2
 24 0 l 1
168 37 m 1
 168 30 168 29 174 29 c 1
 282 29 l 2
 367 29 374 162 374 186 c 0
 374 203 372 260 350 300 c 0
 330 338 303 348 289 348 c 2
 168 348 l 1
 168 37 l 1
168 366 m 1
 265 366 l 2
 328 366 358 440 358 514 c 0
 358 561 344 657 281 657 c 2
 174 657 l 1
 168 657 168 656 168 649 c 1
 168 366 l 1
EndSplineSet
EndChar
StartChar: C
Encoding: 67 67 35
Width: 500
Flags: MW
LayerCount: 2
Fore
SplineSet
39 343 m 0
 39 548 134 699 281 699 c 0
 327 699 367 674 402 627 c 1
 440 689 l 2
 445 697 447 699 452 699 c 0
 462 699 462 690 462 671 c 2
 462 452 l 2
 462 427 462 425 447 425 c 0
 434 425 433 427 431 445 c 0
 418 576 360 670 293 670 c 0
 262 670 203 644 163 574 c 1
 127 511 122 410 122 343 c 0
 122 250 131 175 159 120 c 1
 193 53 250 16 294 16 c 0
 358 16 432 96 436 232 c 0
 437 248 441 248 449 248 c 0
 459 248 462 246 462 228 c 0
 462 113 394 -13 281 -13 c 0
 135 -13 39 138 39 343 c 0
EndSplineSet
EndChar
StartChar: D
Encoding: 68 68 36
Width: 500
Flags: MW
LayerCount: 2
Fore
SplineSet
22 0 m 1
 22 29 l 1
 25 29 l 1
 34 29 85 31 85 38 c 1
 85 647 l 1
 85 654 34 657 25 657 c 1
 22 657 l 1
 22 685 l 1
 266 685 l 2
 378 685 464 551 464 337 c 0
 464 128 378 0 266 0 c 2
 22 0 l 1
158 37 m 1
 158 30 159 29 164 29 c 1
 244 29 l 2
 284 29 332 68 357 128 c 0
 376 174 384 229 384 338 c 0
 384 428 379 499 358 552 c 0
 329 622 282 657 244 657 c 2
 164 657 l 1
 159 657 158 656 158 649 c 1
 158 37 l 1
EndSplineSet
EndChar
StartChar: E
Encoding: 69 69 37
Width: 500
Flags: MW
LayerCount: 2
Fore
SplineSet
25 0 m 1
 25 32 l 1
 35 32 l 1
 68 32 99 39 99 61 c 1
 99 619 l 1
 99 641 68 648 35 648 c 1
 25 648 l 1
 25 680 l 1
 438 680 l 1
 459 449 l 1
 435 449 l 1
 424 581 405 648 295 648 c 2
 197 648 l 1
 177 648 177 644 177 624 c 1
 177 372 l 1
 230 372 l 2
 298 372 306 408 306 489 c 1
 330 489 l 1
 330 222 l 1
 306 222 l 1
 306 303 298 339 230 339 c 2
 177 339 l 1
 177 56 l 1
 177 36 177 32 197 32 c 1
 297 32 l 2
 422 32 439 116 456 264 c 1
 480 264 l 1
 449 0 l 1
 25 0 l 1
EndSplineSet
EndChar
StartChar: F
Encoding: 70 70 38
Width: 500
Flags: MW
LayerCount: 2
Fore
SplineSet
26 0 m 1
 26 32 l 1
 37 32 l 1
 71 32 103 39 103 61 c 1
 103 619 l 1
 103 641 71 648 37 648 c 1
 26 648 l 1
 26 680 l 1
 447 680 l 1
 468 449 l 1
 443 449 l 1
 432 579 414 648 300 648 c 2
 206 648 l 1
 185 648 185 644 185 624 c 1
 185 359 l 1
 237 359 l 2
 308 359 315 396 315 476 c 1
 340 476 l 1
 340 210 l 1
 315 210 l 1
 315 291 308 327 237 327 c 2
 185 327 l 1
 185 61 l 1
 185 40 224 32 266 32 c 1
 281 32 l 1
 281 0 l 1
 252 3 180 3 147 3 c 0
 117 3 53 3 26 0 c 1
EndSplineSet
EndChar
StartChar: G
Encoding: 71 71 39
Width: 500
Flags: MW
LayerCount: 2
Fore
SplineSet
35 343 m 0
 35 550 125 699 258 699 c 0
 293 699 331 680 368 627 c 1
 404 689 l 2
 409 697 409 699 414 699 c 0
 423 699 424 690 424 671 c 2
 424 452 l 2
 424 427 424 425 410 425 c 0
 398 425 398 427 396 445 c 0
 384 576 330 670 269 670 c 0
 221 670 176 623 151 568 c 1
 129 519 117 457 117 344 c 0
 117 250 125 179 149 125 c 0
 179 57 229 16 273 16 c 0
 290 16 313 37 329 59 c 0
 348 81 349 108 349 128 c 2
 349 237 l 1
 349 244 283 247 273 247 c 1
 269 247 l 1
 269 275 l 1
 298 272 350 272 381 272 c 0
 402 272 448 272 468 275 c 1
 468 247 l 1
 461 247 424 246 424 238 c 1
 424 27 l 2
 424 12 423 0 416 0 c 0
 412 0 381 29 365 55 c 1
 338 -6 282 -13 259 -13 c 0
 120 -13 35 143 35 343 c 0
EndSplineSet
EndChar
StartChar: H
Encoding: 72 72 40
Width: 500
Flags: MW
LayerCount: 2
Fore
SplineSet
22 0 m 1
 22 29 l 1
 25 29 l 1
 34 29 83 31 83 38 c 1
 83 647 l 1
 83 654 34 657 25 657 c 1
 22 657 l 1
 22 685 l 1
 44 682 97 682 121 682 c 0
 145 682 198 682 220 685 c 1
 220 657 l 1
 218 657 l 1
 209 657 159 654 159 647 c 1
 159 371 l 1
 341 371 l 1
 341 647 l 1
 341 654 291 657 282 657 c 1
 280 657 l 1
 280 685 l 1
 302 682 355 682 379 682 c 0
 403 682 456 682 478 685 c 1
 478 657 l 1
 476 657 l 1
 467 657 417 654 417 647 c 1
 417 38 l 1
 417 31 467 29 476 29 c 1
 478 29 l 1
 478 0 l 1
 456 3 403 3 379 3 c 0
 355 3 302 3 280 0 c 1
 280 29 l 1
 282 29 l 1
 291 29 341 31 341 38 c 1
 341 342 l 1
 159 342 l 1
 159 38 l 1
 159 31 209 29 218 29 c 1
 220 29 l 1
 220 0 l 1
 198 3 145 3 121 3 c 0
 97 3 44 3 22 0 c 1
EndSplineSet
EndChar
StartChar: I
Encoding: 73 73 41
Width: 500
Flags: MW
LayerCount: 2
Fore
SplineSet
103 0 m 1
 103 31 l 1
 129 31 l 2
 208 31 211 42 211 78 c 2
 211 605 l 2
 211 641 208 652 129 652 c 2
 103 652 l 1
 103 683 l 1
 138 680 211 680 250 680 c 0
 288 680 362 680 397 683 c 1
 397 652 l 1
 371 652 l 2
 292 652 289 641 289 605 c 2
 289 78 l 2
 289 42 292 31 371 31 c 2
 397 31 l 1
 397 0 l 1
 362 3 289 3 250 3 c 0
 212 3 138 3 103 0 c 1
EndSplineSet
EndChar
StartChar: J
Encoding: 74 74 42
Width: 500
Flags: MW
LayerCount: 2
Fore
SplineSet
38 112 m 0
 38 156 72 170 94 170 c 0
 122 170 150 150 150 114 c 0
 150 88 138 58 86 58 c 1
 122 0 190 0 196 0 c 0
 249 0 309 56 309 148 c 2
 309 604 l 2
 309 639 309 652 211 652 c 2
 175 652 l 1
 175 683 l 1
 213 680 291 680 333 680 c 0
 380 680 418 681 462 683 c 1
 462 652 l 1
 399 652 385 652 385 611 c 2
 385 167 l 2
 385 133 385 131 384 123 c 0
 373 48 300 -22 198 -22 c 0
 109 -22 38 38 38 112 c 0
EndSplineSet
EndChar
StartChar: K
Encoding: 75 75 43
Width: 500
Flags: MW
LayerCount: 2
Fore
SplineSet
22 0 m 1
 22 29 l 1
 24 29 l 1
 33 29 83 31 83 38 c 1
 83 647 l 1
 83 654 33 657 24 657 c 1
 22 657 l 1
 22 685 l 1
 43 682 96 682 120 682 c 0
 144 682 198 682 219 685 c 1
 219 657 l 1
 216 657 l 1
 207 657 158 654 158 647 c 1
 158 313 l 1
 363 635 l 1
 360 639 366 640 359 646 c 0
 348 652 338 657 327 657 c 1
 327 685 l 1
 347 682 387 682 408 682 c 0
 413 682 444 682 465 685 c 1
 465 657 l 1
 464 657 455 656 454 656 c 1
 433 654 408 646 398 630 c 2
 267 426 l 1
 417 54 l 2
 426 34 429 29 458 29 c 1
 459 29 473 29 474 29 c 1
 474 0 l 1
 452 3 416 3 394 3 c 0
 369 3 320 3 297 0 c 1
 297 29 l 1
 315 29 329 29 337 41 c 1
 336 48 334 52 332 59 c 2
 217 350 l 1
 158 256 l 1
 158 38 l 1
 158 31 207 29 216 29 c 1
 219 29 l 1
 219 0 l 1
 198 3 144 3 120 3 c 0
 96 3 43 3 22 0 c 1
EndSplineSet
EndChar
StartChar: L
Encoding: 76 76 44
Width: 500
Flags: MW
LayerCount: 2
Fore
SplineSet
27 0 m 1
 27 27 l 1
 38 27 l 1
 73 27 108 34 108 56 c 1
 108 629 l 1
 108 651 73 657 38 657 c 1
 27 657 l 1
 27 684 l 1
 55 681 122 681 153 681 c 0
 187 681 258 681 288 684 c 1
 288 657 l 1
 273 657 l 1
 229 657 187 648 187 628 c 1
 187 51 l 1
 187 31 188 27 210 27 c 1
 284 27 l 2
 421 27 432 175 440 264 c 1
 466 264 l 1
 443 0 l 1
 27 0 l 1
EndSplineSet
EndChar
StartChar: M
Encoding: 77 77 45
Width: 500
Flags: MW
LayerCount: 2
Fore
SplineSet
18 0 m 1
 18 32 l 1
 30 32 l 2
 43 32 44 32 55 35 c 0
 68 38 68 39 68 61 c 2
 68 654 l 1
 18 654 l 1
 18 686 l 1
 120 686 l 2
 130 686 150 686 155 661 c 2
 255 182 l 1
 346 661 l 2
 350 686 356 686 366 686 c 2
 482 686 l 1
 482 654 l 1
 438 654 l 1
 438 32 l 1
 482 32 l 1
 482 0 l 1
 465 3 423 3 404 3 c 0
 385 3 343 3 326 0 c 1
 326 32 l 1
 365 32 l 1
 365 654 l 1
 365 654 l 1
 247 24 l 2
 245 15 241 0 232 0 c 0
 227 0 221 5 217 25 c 2
 93 641 l 1
 92 641 l 1
 92 61 l 2
 92 39 93 38 106 35 c 0
 114 33 122 32 130 32 c 2
 142 32 l 1
 142 0 l 1
 123 3 99 3 80 3 c 0
 62 3 35 3 18 0 c 1
EndSplineSet
EndChar
StartChar: N
Encoding: 78 78 46
Width: 500
Flags: MW
LayerCount: 2
Fore
SplineSet
22 0 m 1
 22 29 l 1
 24 29 37 29 38 29 c 1
 53 30 56 31 68 35 c 0
 83 41 83 46 83 67 c 2
 83 652 l 1
 83 656 84 655 81 656 c 1
 79 656 27 657 25 657 c 1
 22 657 l 1
 22 685 l 1
 147 685 l 2
 159 685 159 684 165 672 c 2
 389 194 l 1
 389 619 l 2
 389 640 389 644 373 650 c 0
 364 653 355 655 344 656 c 1
 343 656 330 657 328 657 c 1
 328 685 l 1
 351 682 380 682 403 682 c 0
 425 682 456 682 478 685 c 1
 478 657 l 1
 476 657 463 656 462 656 c 1
 447 655 445 655 433 651 c 0
 418 645 417 640 417 619 c 2
 417 31 l 2
 417 9 417 0 403 0 c 0
 395 0 394 1 388 13 c 2
 112 617 l 1
 112 618 112 618 111 619 c 1
 111 67 l 2
 111 46 112 42 127 36 c 0
 136 33 146 30 157 29 c 1
 158 29 171 29 173 29 c 1
 173 0 l 1
 150 3 120 3 97 3 c 0
 75 3 44 3 22 0 c 1
EndSplineSet
EndChar
StartChar: O
Encoding: 79 79 47
Width: 500
Flags: MW
LayerCount: 2
Fore
SplineSet
37 339 m 0
 37 548 121 699 251 699 c 0
 378 699 464 553 464 339 c 0
 464 135 381 -13 250 -13 c 0
 121 -13 37 132 37 339 c 0
122 354 m 0
 122 265 128 192 147 132 c 0
 172 54 215 11 250 11 c 0
 282 11 324 49 351 123 c 0
 375 189 379 276 379 354 c 0
 379 429 374 506 352 567 c 0
 327 634 286 677 250 677 c 0
 216 677 175 637 150 572 c 1
 125 508 122 425 122 354 c 0
EndSplineSet
EndChar
StartChar: P
Encoding: 80 80 48
Width: 500
Flags: MW
LayerCount: 2
Fore
SplineSet
25 0 m 1
 25 29 l 1
 28 29 l 1
 38 29 95 31 95 38 c 1
 95 647 l 1
 95 654 38 657 28 657 c 1
 25 657 l 1
 25 685 l 1
 290 685 l 2
 395 685 460 600 460 492 c 0
 460 378 385 320 296 320 c 2
 176 320 l 1
 176 38 l 1
 176 31 233 29 243 29 c 1
 246 29 l 1
 246 0 l 1
 221 3 161 3 133 3 c 0
 105 3 50 3 25 0 c 1
173 343 m 1
 266 343 l 2
 366 343 371 426 371 492 c 0
 371 559 366 657 267 657 c 2
 179 657 l 1
 173 657 173 656 173 649 c 1
 173 343 l 1
EndSplineSet
EndChar
StartChar: Q
Encoding: 81 81 49
Width: 500
Flags: MW
LayerCount: 2
Fore
SplineSet
37 339 m 0
 37 548 121 699 251 699 c 0
 378 699 464 553 464 339 c 0
 464 222 434 78 342 16 c 1
 363 -44 381 -86 397 -86 c 0
 410 -86 444 -44 448 -3 c 0
 449 5 450 17 458 17 c 0
 468 17 468 0 468 -8 c 0
 468 -73 448 -194 388 -194 c 0
 333 -194 322 -112 307 -3 c 1
 285 -11 265 -13 251 -13 c 0
 119 -13 37 135 37 339 c 0
118 340 m 0
 118 232 133 80 198 29 c 1
 197 33 195 46 195 56 c 0
 195 103 220 124 250 124 c 0
 289 124 314 89 327 51 c 1
 385 119 383 280 383 340 c 0
 383 405 379 488 358 552 c 0
 330 639 283 677 250 677 c 0
 221 677 171 643 141 546 c 1
 121 479 118 389 118 340 c 0
214 56 m 0
 214 43 219 9 251 9 c 0
 266 9 284 13 300 26 c 1
 289 88 271 105 251 105 c 0
 231 105 214 83 214 56 c 0
EndSplineSet
EndChar
StartChar: R
Encoding: 82 82 50
Width: 500
Flags: MW
LayerCount: 2
Fore
SplineSet
23 0 m 1
 23 29 l 1
 26 29 l 1
 35 29 87 31 87 38 c 1
 87 647 l 1
 87 654 35 657 26 657 c 1
 23 657 l 1
 23 685 l 1
 243 685 l 2
 351 685 417 601 417 501 c 0
 417 433 383 369 316 340 c 1
 343 323 375 292 384 223 c 1
 384 219 390 148 391 139 c 1
 395 87 400 20 435 20 c 0
 452 20 470 41 473 93 c 0
 474 105 475 115 486 115 c 0
 492 115 499 113 499 94 c 0
 499 76 491 -13 430 -13 c 0
 407 -13 375 -9 349 16 c 1
 311 51 311 98 311 164 c 0
 311 236 306 265 286 300 c 0
 267 334 241 334 232 334 c 2
 162 334 l 1
 162 38 l 1
 162 31 215 29 224 29 c 1
 226 29 l 1
 226 0 l 1
 204 3 150 3 125 3 c 0
 100 3 45 3 23 0 c 1
162 352 m 1
 231 352 l 2
 328 352 336 442 336 501 c 0
 336 579 317 657 229 657 c 1
 227 657 166 656 165 656 c 1
 162 655 162 654 162 649 c 1
 162 352 l 1
EndSplineSet
EndChar
StartChar: S
Encoding: 83 83 51
Width: 500
Flags: MW
LayerCount: 2
Fore
SplineSet
44 2 m 2
 44 202 l 2
 44 220 43 227 56 227 c 0
 59 227 67 227 68 217 c 0
 69 181 72 117 130 63 c 0
 183 14 229 9 258 9 c 0
 342 9 392 81 392 152 c 0
 392 185 383 218 362 244 c 1
 334 281 303 293 276 300 c 0
 206 317 185 329 174 333 c 0
 96 360 44 428 44 511 c 0
 44 617 127 705 238 705 c 0
 327 705 347 679 368 659 c 1
 400 692 l 2
 406 699 411 705 418 705 c 0
 429 705 430 698 430 681 c 2
 430 480 l 2
 430 461 429 456 416 456 c 0
 405 456 405 462 404 468 c 0
 398 513 407 677 240 677 c 0
 162 677 108 616 108 546 c 0
 108 488 147 432 208 414 c 2
 306 383 l 2
 388 357 456 286 456 186 c 0
 456 76 377 -22 260 -22 c 0
 171 -22 136 12 105 46 c 1
 72 -7 70 -8 70 -9 c 0
 63 -20 61 -22 54 -22 c 0
 43 -22 44 -15 44 2 c 2
EndSplineSet
EndChar
StartChar: T
Encoding: 84 84 52
Width: 500
Flags: MW
LayerCount: 2
Fore
SplineSet
26 438 m 1
 39 675 l 1
 461 675 l 1
 474 438 l 1
 447 438 l 1
 440 561 433 647 341 647 c 1
 339 647 291 646 290 646 c 5
 288 645 287 643 287 639 c 5
 287 38 l 5
 287 31 371 29 384 29 c 1
 389 29 l 1
 389 0 l 1
 356 3 286 3 250 3 c 0
 214 3 145 3 112 0 c 1
 112 29 l 1
 117 29 l 1
 130 29 213 31 213 38 c 1
 213 639 l 1
 213 644 214 645 211 646 c 1
 210 646 162 647 160 647 c 1
 67 647 59 561 53 438 c 1
 26 438 l 1
EndSplineSet
EndChar
StartChar: V
Encoding: 86 86 54
Width: 500
Flags: MW
LayerCount: 2
Fore
SplineSet
15 657 m 1
 15 685 l 1
 36 682 80 682 104 682 c 0
 129 682 178 682 200 685 c 1
 200 657 l 1
 197 657 146 657 146 651 c 1
 146 651 146 650 147 647 c 1
 273 135 l 5
 393 623 l 2
 394 627 395 632 395 637 c 0
 395 651 355 657 345 657 c 1
 345 685 l 1
 367 682 397 682 420 682 c 0
 436 682 464 684 486 685 c 1
 486 657 l 1
 485 657 475 656 474 656 c 1
 433 655 428 643 424 626 c 2
 272 12 l 2
 266 -10 260 -11 250 -11 c 0
 235 -11 233 -4 228 14 c 2
 70 649 l 1
 68 657 23 657 15 657 c 1
EndSplineSet
EndChar
StartChar: W
Encoding: 87 87 55
Width: 500
Flags: MW
LayerCount: 2
Fore
SplineSet
10 654 m 1
 10 686 l 1
 25 683 67 683 83 683 c 0
 101 683 137 683 153 686 c 1
 153 654 l 1
 118 654 l 1
 183 215 l 1
 240 543 l 1
 222 654 l 1
 186 654 l 1
 186 686 l 1
 201 683 243 683 259 683 c 0
 277 683 318 683 334 686 c 1
 334 654 l 1
 294 654 l 1
 358 220 l 1
 421 643 l 1
 409 654 389 654 378 654 c 1
 378 686 l 1
 393 683 424 683 440 683 c 0
 459 683 479 685 490 686 c 1
 490 654 l 1
 483 654 474 654 466 652 c 0
 453 649 453 647 450 630 c 2
 353 18 l 2
 350 2 349 -8 338 -8 c 0
 327 -8 326 2 323 18 c 2
 253 465 l 1
 177 18 l 2
 174 2 173 -8 162 -8 c 0
 151 -8 150 2 147 18 c 2
 46 654 l 1
 10 654 l 1
EndSplineSet
EndChar
StartChar: X
Encoding: 88 88 56
Width: 500
Flags: MW
LayerCount: 2
Fore
SplineSet
19 0 m 1
 19 29 l 1
 21 29 36 29 37 29 c 1
 50 30 62 33 73 36 c 0
 91 41 94 46 99 58 c 2
 209 343 l 1
 87 650 l 1
 85 656 37 657 30 657 c 1
 28 657 l 1
 28 685 l 1
 49 682 97 682 120 682 c 0
 146 682 189 682 213 685 c 1
 213 657 l 1
 208 657 166 653 166 651 c 1
 166 650 167 649 167 648 c 1
 250 436 l 1
 326 625 l 2
 328 630 331 635 331 639 c 1
 314 652 293 657 280 657 c 1
 280 685 l 1
 302 682 344 682 367 682 c 0
 390 682 419 682 444 685 c 1
 444 657 l 1
 443 657 428 656 427 656 c 1
 411 656 405 655 392 651 c 0
 372 646 370 642 363 627 c 2
 267 395 l 1
 412 36 l 1
 414 30 463 29 469 29 c 1
 472 29 l 1
 472 0 l 1
 450 3 404 3 380 3 c 0
 354 3 310 3 286 0 c 1
 286 29 l 1
 291 29 334 33 334 35 c 1
 334 36 333 36 333 37 c 1
 227 303 l 1
 137 60 l 2
 135 55 132 50 132 47 c 1
 149 35 169 29 183 29 c 1
 183 0 l 1
 162 3 119 3 96 3 c 0
 72 3 43 3 19 0 c 1
EndSplineSet
EndChar
StartChar: Y
Encoding: 89 89 57
Width: 500
Flags: MW
LayerCount: 2
Fore
SplineSet
10 657 m 1
 10 685 l 1
 32 682 80 682 104 682 c 0
 130 682 174 682 198 685 c 1
 198 657 l 1
 193 657 150 656 150 652 c 1
 150 651 149 650 150 648 c 1
 271 316 l 1
 386 625 l 2
 388.328771292 631.257307211 390 636 391 641 c 1
 379 653 364 657 348 657 c 1
 348 685 l 1
 369 682 402 682 424 682 c 0
 440 682 467 684 490 685 c 1
 490 657 l 1
 489 657 477 657 475 656 c 1
 465 655 453 653 443 648 c 0
 431 644 427 642 422 628 c 2
 287 274 l 1
 287 39 l 1
 287 31 339 29 348 29 c 1
 351 29 l 1
 351 0 l 1
 329 3 275 3 250 3 c 0
 225 3 170 3 149 0 c 1
 149 29 l 1
 152 29 l 1
 161 29 213 31 213 38 c 1
 213 274 l 1
 70 649 l 1
 68 654 20 657 12 657 c 1
 10 657 l 1
EndSplineSet
EndChar
StartChar: Z
Encoding: 90 90 58
Width: 500
Flags: MW
LayerCount: 2
Fore
SplineSet
46 21 m 0
 46 30 46 32 52 43 c 2
 371 657 l 1
 243 657 l 2
 123 657 89 574 83 453 c 1
 57 453 l 1
 66 684 l 1
 433 684 l 2
 449 684 455 685 455 665 c 0
 455 656 455 655 449 644 c 2
 130 31 l 1
 265 31 l 2
 414 31 428 146 434 274 c 1
 460 274 l 1
 446 0 l 1
 68 0 l 2
 51 0 46 0 46 21 c 0
EndSplineSet
EndChar
StartChar: bracketleft
Encoding: 91 91 59
Width: 500
Flags: MW
LayerCount: 2
Fore
SplineSet
224 -250 m 1
 224 750 l 1
 376 750 l 1
 376 727 l 1
 292 727 l 1
 292 -227 l 1
 376 -227 l 1
 376 -250 l 1
 224 -250 l 1
EndSplineSet
EndChar
StartChar: bracketright
Encoding: 93 93 61
Width: 500
Flags: MW
LayerCount: 2
Fore
SplineSet
124 -227 m 1
 208 -227 l 1
 208 727 l 1
 124 727 l 1
 124 750 l 1
 276 750 l 1
 276 -250 l 1
 124 -250 l 1
 124 -227 l 1
EndSplineSet
EndChar
StartChar: asciicircum
Encoding: 94 94 62
Width: 500
Flags: MW
LayerCount: 2
Fore
SplineSet
62 484 m 1
 250 628 l 1
 438 484 l 1
 422 463 l 1
 250 575 l 1
 78 463 l 1
 62 484 l 1
EndSplineSet
EndChar
StartChar: underscore
Encoding: 95 95 63
Width: 500
Flags: MW
LayerCount: 2
Fore
SplineSet
54 -213 m 0
 54 -197 63 -193 73 -193 c 2
 426 -193 l 2
 435 -193 445 -195 445 -213 c 0
 445 -230 434 -232 427 -233 c 1
 73 -233 l 2
 58 -233 54 -221 54 -213 c 0
EndSplineSet
EndChar
StartChar: grave
Encoding: 96 96 64
Width: 500
Flags: MW
LayerCount: 2
Fore
SplineSet
100 605 m 0
 100 622 114 642 135 642 c 0
 155 642 159 631 285 510 c 1
 270 490 l 1
 252 499 180 540 136 565 c 0
 127 570 100 581 100 605 c 0
EndSplineSet
EndChar
StartChar: a
Encoding: 97 97 65
Width: 500
Flags: MW
LayerCount: 2
Fore
SplineSet
72 95 m 4
 72 139 97 191 172 225 c 5
 235 255 305 258 356 261 c 5
 356 298 l 6
 356 387 299 426 250 426 c 4
 218 426 169 415 142 380 c 5
 188 379 194 346 194 334 c 4
 194 308 176 288 148 288 c 4
 122 288 102 305 102 335 c 4
 102 357 109 377 122 394 c 4
 149 427 197 448 252 448 c 4
 300 448 351 432 390 393 c 4
 426 356 426 317 426 275 c 6
 426 75 l 6
 426 70 429 25 462 25 c 4
 475 25 488 27 488 11 c 4
 488 -6 476 -6 456 -6 c 6
 442 -6 l 6
 395 -6 368 36 364 76 c 5
 345 29 298 -11 232 -11 c 4
 169 -11 72 14 72 95 c 4
150 96 m 4
 150 46 191 11 240 11 c 4
 285 11 356 45 356 140 c 6
 356 240 l 5
 191 234 150 151 150 96 c 4
EndSplineSet
EndChar
StartChar: b
Encoding: 98 98 66
Width: 500
Flags: MW
LayerCount: 2
Fore
SplineSet
14 652 m 1
 14 683 l 1
 138 694 l 1
 138 377 l 1
 154 395 176 442 254 442 c 0
 368 442 466 343 466 216 c 0
 466 87 363 -11 244 -11 c 0
 170 -11 147 39 132 62 c 1
 105 15 97 1 96 0 c 1
 72 0 l 1
 72 596 l 2
 72 645 84 652 14 652 c 1
140 114 m 2
 140 96 140 93 154 72 c 0
 178 35 195 11 240 11 c 0
 294 11 331 44 352 75 c 0
 381 120 384 180 384 217 c 0
 384 258 380 315 354 356 c 0
 330 394 295 420 250 420 c 0
 226 420 191 412 152 356 c 0
 141 340 140 339 140 320 c 2
 140 114 l 2
EndSplineSet
EndChar
StartChar: c
Encoding: 99 99 67
Width: 500
Flags: MW
LayerCount: 2
Fore
SplineSet
60 216 m 0
 60 340 151 448 276 448 c 0
 353 448 430 409 430 341 c 0
 430 311 410 294 384 294 c 0
 356 294 338 314 338 340 c 0
 338 353 343 383 384 386 c 1
 349 422 287 423 278 423 c 0
 225 423 142 381 142 218 c 0
 142 57 231 14 284 14 c 0
 321 14 385 26 414 119 c 0
 416 125 419 129 428 129 c 0
 431 129 440 129 440 119 c 0
 440 109 408 -11 274 -11 c 0
 158 -11 60 88 60 216 c 0
EndSplineSet
EndChar
StartChar: d
Encoding: 100 100 68
Width: 500
Flags: MW
LayerCount: 2
Fore
SplineSet
34 215 m 0
 34 344 139 442 257 442 c 0
 311 442 334 416 363 380 c 1
 363 596 l 2
 363 645 375 652 305 652 c 1
 305 683 l 1
 429 694 l 1
 429 87 l 2
 429 38 417 31 487 31 c 5
 487 0 l 5
 360 -11 l 1
 360 55 l 1
 335 23 310 -11 246 -11 c 0
 132 -11 34 88 34 215 c 0
117 214 m 0
 117 173 120 116 146 75 c 0
 170 37 206 11 251 11 c 0
 294 11 319 33 349 81 c 0
 360 98 360 100 360 118 c 2
 360 323 l 2
 360 341 360 343 349 360 c 0
 318 405 296 420 261 420 c 0
 207 420 169 387 148 356 c 0
 119 311 117 251 117 214 c 0
EndSplineSet
EndChar
StartChar: e
Encoding: 101 101 69
Width: 500
Flags: MW
LayerCount: 2
Fore
SplineSet
56 220 m 0
 56 345 148 448 264 448 c 0
 313 448 352 433 380 409 c 4
 424 371 444 312 444 252 c 0
 444 231 440 231 418 231 c 2
 140 231 l 1
 140 195 140 129 170 81 c 0
 193 44 232 14 282 14 c 0
 292 14 383 14 418 117 c 0
 420 125 421 131 430 131 c 0
 435 131 444 129 444 119 c 0
 444 100 398 -11 276 -11 c 0
 161 -11 56 86 56 220 c 0
140 252 m 1
 378 252 l 1
 378 291 367 426 264 426 c 0
 243 426 201 416 172 371 c 0
 155 345 142 307 140 252 c 1
EndSplineSet
EndChar
StartChar: f
Encoding: 102 102 70
Width: 500
Flags: MW
LayerCount: 2
Fore
SplineSet
108 400 m 5
 108 431 l 5
 187 431 l 5
 187 546 l 6
 187 652 272 705 342 705 c 4
 395 705 432 672 432 635 c 4
 432 611 417 591 388 591 c 4
 361 591 345 611 345 634 c 4
 345 659 363 672 375 676 c 5
 360 683 345 683 342 683 c 4
 298 683 250 635 250 547 c 6
 250 431 l 5
 367 431 l 5
 367 400 l 5
 253 400 l 5
 253 78 l 6
 253 42 255 31 329 31 c 6
 350 31 l 5
 350 0 l 5
 310 3 263 3 223 3 c 4
 195 3 148 1 109 0 c 5
 109 31 l 5
 176 31 187 31 187 76 c 6
 187 400 l 5
 108 400 l 5
EndSplineSet
EndChar
StartChar: h
Encoding: 104 104 72
Width: 500
Flags: MW
LayerCount: 2
Fore
SplineSet
28 0 m 1
 28 31 l 1
 95 31 86 31 86 76 c 2
 86 596 l 2
 86 645 98 652 28 652 c 1
 28 683 l 1
 152 694 l 1
 152 346 l 1
 154 346 l 1
 170 382 194 442 278 442 c 0
 336 442 368 422 382 405 c 0
 413 369 414 338 414 252 c 2
 414 61 l 1
 415 31 420 31 472 31 c 5
 472 0 l 5
 438 1 406 3 380 3 c 0
 353 3 321 1 286 0 c 1
 286 31 l 1
 353 31 344 31 344 76 c 2
 344 309 l 2
 344 366 333 420 270 420 c 0
 206 420 156 364 156 260 c 2
 156 76 l 2
 156 31 147 31 214 31 c 1
 214 0 l 1
 180 1 148 3 122 3 c 0
 95 3 63 1 28 0 c 1
EndSplineSet
EndChar
StartChar: i
Encoding: 105 105 73
Width: 500
Flags: MW
LayerCount: 2
Fore
SplineSet
143 0 m 1
 143 31 l 1
 181 31 201 31 211 39 c 0
 219 45 221 56 221 76 c 2
 221 345 l 2
 221 394 212 400 147 400 c 1
 147 431 l 1
 287 442 l 1
 287 75 l 2
 287 57 288 46 295 40 c 4
 304 32 321 31 357 31 c 1
 357 0 l 1
 323 1 288 3 253 3 c 0
 229 3 175 1 143 0 c 1
185 616 m 0
 185 642 207 669 238 669 c 0
 266 669 291 648 291 616 c 0
 291 584 266 563 238 563 c 0
 207 563 185 589 185 616 c 0
EndSplineSet
EndChar
StartChar: j
Encoding: 106 106 74
Width: 500
Flags: MW
LayerCount: 2
Fore
SplineSet
75 -125 m 0
 75 -99 93 -79 121 -79 c 0
 149 -79 167 -99 167 -125 c 0
 167 -152 147 -166 132 -170 c 1
 158 -183 181 -183 186 -183 c 0
 250 -183 259 -97 259 -52 c 2
 259 344 l 2
 259 374 256 389 235 395 c 0
 222 399 203 400 173 400 c 1
 173 431 l 1
 325 442 l 1
 325 -50 l 2
 325 -141 263 -205 188 -205 c 0
 131 -205 75 -177 75 -125 c 0
219 616 m 0
 219 645 243 669 272 669 c 0
 301 669 325 645 325 616 c 0
 325 587 301 563 272 563 c 0
 243 563 219 587 219 616 c 0
EndSplineSet
EndChar
StartChar: k
Encoding: 107 107 75
Width: 500
Flags: MW
LayerCount: 2
Fore
SplineSet
28 0 m 1
 28 31 l 1
 57 31 72 31 79 38 c 0
 85 44 86 55 86 76 c 2
 86 596 l 2
 86 645 84 652 28 652 c 1
 28 683 l 1
 152 694 l 1
 152 214 l 1
 293 336 l 2
 301 343 315 355 315 375 c 0
 315 388 305 399 286 400 c 1
 286 431 l 1
 300 430 342 428 378 428 c 0
 406 428 419 428 448 431 c 1
 448 400 l 1
 427 399 405 397 342 346 c 0
 332 338 261 278 261 274 c 0
 261 271 266 265 267 263 c 2
 394 84 l 2
 425 41 426 33 452 31 c 2
 458 31 464 31 471 31 c 1
 471 0 l 1
 442 2 413 3 384 3 c 0
 363 3 324 1 296 0 c 1
 296 31 l 1
 315 31 332 35 332 54 c 0
 332 61 323 78 314 92 c 0
 276 149 260 169 213 234 c 1
 149 179 l 1
 149 76 l 2
 149 56 151 45 159 39 c 4
 169 31 189 31 227 31 c 1
 227 0 l 1
 187 2 147 3 117 3 c 0
 88 3 61 1 28 0 c 1
EndSplineSet
EndChar
StartChar: l
Encoding: 108 108 76
Width: 500
Flags: MW
LayerCount: 2
Fore
SplineSet
139 0 m 1
 139 31 l 1
 177 31 197 31 207 39 c 0
 215 45 217 56 217 76 c 2
 217 596 l 2
 217 645 209 652 139 652 c 1
 139 683 l 1
 283 694 l 1
 283 76 l 2
 283 56 285 45 293 39 c 4
 303 31 323 31 361 31 c 1
 361 0 l 1
 324 1 275 3 250 3 c 0
 225 3 172 1 139 0 c 1
EndSplineSet
EndChar
StartChar: m
Encoding: 109 109 77
Width: 500
Flags: MW
LayerCount: 2
Fore
SplineSet
24 0 m 1
 24 32 l 1
 60 32 l 1
 60 371 l 2
 60 410 56 410 24 410 c 1
 24 442 l 1
 113 450 l 1
 113 342 l 1
 130 405 160 450 205 450 c 0
 225 450 274 447 284 354 c 1
 298 400 324 450 372 450 c 0
 400 450 421 440 434 415 c 0
 447 392 452 356 452 306 c 2
 452 32 l 1
 489 32 l 1
 489 0 l 1
 474 1 443 3 423 3 c 0
 403 3 372 1 357 0 c 1
 357 32 l 1
 393 32 l 1
 393 317 l 2
 393 394 382 429 364 429 c 0
 332 429 286 365 286 256 c 2
 286 32 l 1
 322 32 l 1
 322 0 l 1
 307 1 276 3 256 3 c 0
 236 3 205 1 190 0 c 1
 190 32 l 1
 226 32 l 1
 226 317 l 2
 226 394 215 429 197 429 c 0
 165 429 119 365 119 256 c 2
 119 32 l 1
 155 32 l 1
 155 0 l 1
 140 1 109 3 89 3 c 0
 69 3 39 1 24 0 c 1
EndSplineSet
EndChar
StartChar: n
Encoding: 110 110 78
Width: 500
Flags: MW
LayerCount: 2
Fore
SplineSet
28 0 m 1
 28 31 l 1
 57 31 72 31 79 39 c 0
 85 45 86 57 86 76 c 2
 86 344 l 2
 86 393 85 400 28 400 c 1
 28 431 l 1
 150 442 l 1
 150 337 l 1
 164 394 205 442 278 442 c 0
 336 442 368 422 382 405 c 0
 413 369 414 338 414 252 c 2
 414 61 l 1
 414 48 416 40 421 36 c 4
 428 31 442 31 472 31 c 1
 472 0 l 1
 438 1 406 3 380 3 c 0
 353 3 321 1 286 0 c 1
 286 31 l 1
 313 31 328 31 336 38 c 0
 342 44 344 56 344 76 c 2
 344 309 l 2
 344 366 333 420 270 420 c 0
 206 420 156 364 156 260 c 2
 156 76 l 2
 156 58 158 46 163 40 c 0
 171 31 186 31 214 31 c 1
 214 0 l 1
 180 1 148 3 122 3 c 0
 95 3 63 1 28 0 c 1
EndSplineSet
EndChar
StartChar: p
Encoding: 112 112 80
Width: 500
Flags: MW
LayerCount: 2
Fore
SplineSet
4 -163 m 1
 71 -163 62 -163 62 -118 c 2
 62 350 l 2
 62 394 75 400 4 400 c 1
 4 431 l 1
 128 442 l 1
 128 376 l 1
 148 398 190 442 268 442 c 0
 380 442 456 343 456 216 c 0
 456 87 373 -11 254 -11 c 0
 178 -11 135 43 130 59 c 1
 130 50 l 1
 130 -118 l 2
 130 -163 141 -163 208 -163 c 1
 208 -194 l 1
 173 -193 123 -191 96 -191 c 0
 70 -191 38 -193 4 -194 c 1
 4 -163 l 1
130 114 m 2
 130 94 130 93 144 72 c 0
 171 31 210 11 250 11 c 0
 324 11 374 95 374 216 c 0
 374 329 333 417 260 417 c 0
 209 417 159 388 130 337 c 1
 130 337 l 1
 130 114 l 2
EndSplineSet
EndChar
StartChar: q
Encoding: 113 113 81
Width: 500
Flags: MW
LayerCount: 2
Fore
SplineSet
34 215 m 0
 34 345 119 442 235 442 c 0
 315 442 356 379 369 351 c 1
 407 442 l 1
 429 442 l 1
 429 -118 l 2
 429 -140 430 -151 437 -157 c 4
 445 -163 459 -163 487 -163 c 1
 487 -194 l 1
 452 -193 421 -191 394 -191 c 0
 368 -191 316 -193 282 -194 c 1
 282 -163 l 1
 321 -163 341 -163 351 -154 c 0
 358 -148 360 -137 360 -118 c 2
 360 61 l 1
 338 32 297 -11 227 -11 c 0
 111 -11 34 90 34 215 c 0
117 215 m 0
 117 100 158 11 231 11 c 0
 278 11 310 38 323 52 c 0
 345 76 363 104 363 136 c 2
 363 277 l 2
 363 330 321 417 241 417 c 0
 167 417 117 334 117 215 c 0
EndSplineSet
EndChar
StartChar: r
Encoding: 114 114 82
Width: 500
Flags: MW
LayerCount: 2
Fore
SplineSet
82 0 m 1
 82 31 l 1
 149 31 160 31 160 76 c 2
 160 344 l 2
 160 393 152 400 82 400 c 1
 82 431 l 1
 221 442 l 1
 221 332 l 1
 235 375 271 442 344 442 c 0
 387 442 418 413 418 381 c 0
 418 349 393 337 375 337 c 0
 353 337 332 352 332 380 c 0
 332 406 352 418 355 419 c 1
 353 420 351 420 344 420 c 0
 268 420 226 331 226 232 c 2
 226 78 l 2
 226 42 228 31 302 31 c 2
 323 31 l 1
 323 0 l 1
 283 3 236 3 196 3 c 0
 168 3 121 1 82 0 c 1
EndSplineSet
EndChar
StartChar: s
Encoding: 115 115 83
Width: 500
Flags: MW
LayerCount: 2
Fore
SplineSet
86 13 m 2
 86 145 l 2
 86 163 87 170 100 170 c 0
 110 170 111 166 114 153 c 0
 133 68 168 11 252 11 c 0
 330 11 366 51 366 102 c 0
 366 174 284 190 262 194 c 0
 190 208 162 214 130 240 c 0
 103 262 86 290 86 325 c 0
 86 381 124 448 246 448 c 0
 261 448 302 448 340 420 c 1
 344 423 355 432 358 436 c 0
 371 448 373 448 378 448 c 0
 389 448 388 441 388 424 c 2
 388 323 l 2
 388 304 389 299 376 299 c 0
 374 299 365 299 364 308 c 0
 362 339 356 429 246 429 c 0
 160 429 134 388 134 353 c 0
 134 295 202 282 258 271 c 0
 300 263 339 255 372 223 c 0
 384 211 414 181 414 128 c 0
 414 56 367 -11 252 -11 c 0
 231 -11 186 -10 142 32 c 1
 124 13 124 11 122 9 c 0
 103 -10 103 -11 98 -11 c 0
 87 -11 86 -4 86 13 c 2
EndSplineSet
EndChar
StartChar: t
Encoding: 116 116 84
Width: 500
Flags: MW
LayerCount: 2
Fore
SplineSet
94 400 m 1
 94 422 l 1
 192 426 221 533 222 615 c 1
 248 615 l 1
 248 431 l 1
 390 431 l 1
 390 400 l 1
 248 400 l 1
 248 122 l 2
 248 105 247 14 314 14 c 0
 351 14 382 52 382 126 c 2
 382 181 l 1
 406 181 l 1
 406 124 l 2
 406 60 379 -11 308 -11 c 0
 272 -11 178 1 178 124 c 2
 178 400 l 1
 94 400 l 1
EndSplineSet
EndChar
StartChar: u
Encoding: 117 117 85
Width: 500
Flags: MW
LayerCount: 2
Fore
SplineSet
32 400 m 1
 32 431 l 1
 159 442 l 1
 159 110 l 2
 159 58 163 11 247 11 c 0
 320 11 368 79 368 166 c 2
 368 344 l 2
 368 393 380 400 310 400 c 1
 310 431 l 1
 437 442 l 1
 437 87 l 2
 437 38 425 31 495 31 c 1
 495 0 l 1
 371 -11 l 1
 371 79 l 1
 342 17 298 -11 242 -11 c 0
 90 -11 90 80 90 158 c 2
 90 308 l 2
 90 397 110 400 32 400 c 1
EndSplineSet
EndChar
StartChar: v
Encoding: 118 118 86
Width: 500
Flags: MW
LayerCount: 2
Fore
SplineSet
26 400 m 1
 26 431 l 1
 56 429 75 428 102 428 c 0
 125 428 182 430 212 431 c 1
 212 400 l 1
 194 400 154 400 154 374 c 0
 154 372 154 370 160 357 c 2
 272 78 l 1
 374 333 l 2
 378 344 380 348 380 357 c 0
 380 376 369 399 332 400 c 1
 332 431 l 1
 349 430 396 428 420 428 c 0
 443 428 451 429 474 431 c 1
 474 400 l 1
 408 399 411 356 402 333 c 2
 272 8 l 2
 268 -2 263 -11 250 -11 c 0
 237 -11 236 -6 230 8 c 2
 86 363 l 2
 73 394 68 400 26 400 c 1
EndSplineSet
EndChar
StartChar: w
Encoding: 119 119 87
Width: 500
Flags: MW
LayerCount: 2
Fore
SplineSet
14 398 m 1
 14 429 l 1
 36 428 66 426 79 426 c 0
 101 426 131 427 154 429 c 1
 154 398 l 1
 149 398 118 398 118 387 c 1
 118 385 118 385 119 380 c 1
 183 119 l 1
 236 331 l 1
 236 333 237 336 237 338 c 1
 235 346 232 360 223 392 c 1
 220 397 194 398 185 398 c 1
 185 429 l 1
 199 428 221 426 245 426 c 0
 263 426 296 428 316 429 c 1
 316 398 l 1
 311 398 279 398 279 387 c 1
 279 385 279 385 280 380 c 1
 349 100 l 1
 412 356 l 2
 414 363 415 368 415 372 c 0
 415 390 391 398 378 398 c 1
 378 429 l 1
 391 428 421 426 439 426 c 0
 454 426 473 427 487 429 c 1
 487 398 l 1
 456 398 445 388 439 360 c 2
 354 17 l 2
 350 3 349 -7 336 -7 c 0
 323 -7 321 2 317 17 c 2
 250 286 l 1
 184 17 l 2
 180 1 178 -7 165 -7 c 0
 152 -7 150 2 146 18 c 2
 56 384 l 1
 53 397 27 398 14 398 c 1
EndSplineSet
EndChar
StartChar: x
Encoding: 120 120 88
Width: 500
Flags: MW
LayerCount: 2
Fore
SplineSet
12 0 m 1
 12 31 l 1
 33 31 72 33 120 91 c 1
 214 210 l 1
 115 339 l 2
 68 399 66 400 17 400 c 1
 17 431 l 1
 44 429 71 428 92 428 c 0
 108 428 174 430 200 431 c 1
 200 400 l 1
 180 399 165 390 165 375 c 0
 165 369 165 367 174 357 c 1
 252 256 l 1
 314 334 l 2
 319 340 329 353 329 369 c 0
 329 385 321 398 300 400 c 1
 300 431 l 1
 313 430 346 428 376 428 c 0
 402 428 432 429 458 431 c 1
 458 400 l 1
 411 399 390 384 359 348 c 1
 335 322 297 273 267 235 c 1
 401 62 l 2
 424 33 422 31 476 31 c 1
 476 0 l 1
 446 2 407 3 380 3 c 0
 358 3 322 1 292 0 c 1
 292 31 l 1
 319 32 328 47 328 56 c 0
 328 62 315 78 307 89 c 2
 231 189 l 1
 187 137 160 106 148 84 c 1
 143 75 141 68 141 62 c 0
 141 47 148 34 170 31 c 1
 170 0 l 1
 146 1 104 3 75 3 c 0
 49 3 38 2 12 0 c 1
EndSplineSet
EndChar
StartChar: y
Encoding: 121 121 89
Width: 500
Flags: MW
LayerCount: 2
Fore
SplineSet
19 -124 m 0
 19 -94 41 -81 61 -81 c 0
 84 -81 103 -97 103 -123 c 0
 103 -139 95 -161 64 -165 c 1
 68 -179 86 -183 91 -183 c 0
 155 -183 183 -114 205 -59 c 0
 211 -46 225 -13 230 0 c 1
 80 365 l 2
 66 400 67 400 19 400 c 1
 19 431 l 1
 49 429 69 428 96 428 c 0
 113 428 179 430 205 431 c 1
 205 400 l 1
 186 400 149 400 149 374 c 0
 149 370 151 366 155 356 c 2
 266 87 l 1
 367 333 l 2
 372 345 373 347 373 357 c 0
 373 382 357 399 326 400 c 1
 326 431 l 1
 348 430 375 428 393 428 c 0
 416 428 445 429 468 431 c 1
 468 400 l 1
 452 400 421 399 395 336 c 2
 219 -91 l 2
 195 -148 154 -205 91 -205 c 0
 41 -205 19 -169 19 -124 c 0
EndSplineSet
EndChar
StartChar: z
Encoding: 122 122 90
Width: 500
Flags: MW
LayerCount: 2
Fore
SplineSet
64 14 m 0
 64 19 63 21 72 32 c 2
 352 409 l 1
 238 409 l 2
 128 409 108 372 102 270 c 1
 78 270 l 1
 88 431 l 1
 408 431 l 2
 426 431 434 431 434 418 c 0
 434 414 435 412 426 401 c 2
 148 25 l 1
 266 25 l 2
 382 25 403 69 412 187 c 1
 436 187 l 1
 420 0 l 1
 90 0 l 2
 71 0 64 0 64 14 c 0
EndSplineSet
EndChar
StartChar: bar
Encoding: 124 124 92
Width: 500
Flags: MW
LayerCount: 2
Fore
SplineSet
230 -219 m 2
 230 712 l 2
 230 734 232 749 250 749 c 0
 258 749 270 745 270 719 c 2
 270 -212 l 2
 270 -237 267 -249 250 -249 c 0
 231 -249 230 -228 230 -219 c 2
EndSplineSet
EndChar
StartChar: asciitilde
Encoding: 126 126 126
Width: 500
Flags: MW
LayerCount: 2
Fore
SplineSet
28 588 m 1
 61 626 89 668 153 668 c 0
 223 668 287 620 357 620 c 0
 405 620 429 642 455 668 c 1
 472 653 l 1
 440 614 408 574 347 574 c 0
 277 574 213 621 143 621 c 0
 96 621 71 599 45 574 c 1
 28 588 l 1
EndSplineSet
EndChar
StartChar: exclamdown
Encoding: 161 161 108
Width: 500
Flags: MW
LayerCount: 2
Fore
SplineSet
197 -164 m 0
 197 -151 199 -138 201 -120 c 2
 236 287 l 2
 237 296 237 312 250 312 c 0
 266 312 264 292 272 197 c 2
 301 -144 l 2
 302 -150 303 -157 303 -164 c 0
 303 -201 273 -216 250 -216 c 0
 224 -216 197 -198 197 -164 c 0
197 447 m 0
 197 478 223 500 250 500 c 0
 277 500 302 478 302 447 c 0
 302 416 276 395 250 395 c 0
 219 395 197 421 197 447 c 0
EndSplineSet
EndChar
StartChar: cent
Encoding: 162 162 104
Width: 500
Flags: MW
LayerCount: 2
Fore
SplineSet
32 215 m 0
 32 337 129 437 260 446 c 1
 260 533 l 1
 292 533 l 1
 292 446 l 1
 393 444 458 404 458 342 c 0
 458 310 437 294 414 294 c 0
 386 294 368 315 368 340 c 0
 368 352 371 380 412 386 c 1
 393 400 365 418 292 421 c 1
 292 15 l 1
 390 22 418 68 434 99 c 4
 442 116 447 129 456 129 c 0
 463 129 468 124 468 118 c 0
 468 110 441 0 292 -10 c 1
 292 -97 l 1
 260 -97 l 1
 260 -10 l 1
 128 -1 32 97 32 215 c 0
116 216 m 0
 116 127 154 37 260 16 c 1
 260 420 l 1
 162 407 116 322 116 216 c 0
EndSplineSet
EndChar
StartChar: sterling
Encoding: 163 163 105
Width: 500
Flags: MW
LayerCount: 2
Fore
SplineSet
12 48 m 0
 12 102 48 139 112 139 c 2
 112 139 l 2
 120 139 142 138 178 127 c 1
 180 156 180 188 180 219 c 2
 180 332 l 1
 120 332 l 2
 112 332 101 331 96 339 c 0
 94 341 94 344 94 347 c 4
 94 351 95 355 98 358 c 0
 102 363 110 363 118 363 c 2
 180 363 l 1
 180 510 l 2
 180 514 180 518 180 522 c 0
 183 652 241 706 314 706 c 0
 416 706 440 610 440 525 c 0
 440 485 410 475 394 475 c 0
 369 475 348 494 348 520 c 0
 348 547 369 566 394 566 c 0
 400 566 405 565 410 564 c 1
 406 615 370 683 316 683 c 0
 290 683 275 657 262 630 c 0
 251 608 250 548 250 506 c 2
 250 363 l 1
 334 363 l 1
 348 362 362 362 362 348 c 0
 362 335 354 332 338 332 c 2
 250 332 l 1
 250 185 l 2
 250 151 248 133 236 102 c 1
 286 77 312 33 374 33 c 0
 435 33 452 77 460 122 c 0
 461 128 463 148 474 148 c 0
 476 148 477 147 480 146 c 0
 485 143 488 138 488 130 c 0
 488 79 459 -11 360 -11 c 0
 306 -11 305 10 212 60 c 1
 161 -6 98 -11 76 -11 c 0
 41 -11 12 13 12 48 c 0
50 47 m 0
 50 26 61 12 78 12 c 0
 113 12 148 37 166 81 c 1
 140 90 120 93 107 94 c 0
 104 94 100 94 98 94 c 0
 61 94 50 68 50 47 c 0
EndSplineSet
EndChar
StartChar: yen
Encoding: 165 165 60
Width: 500
Flags: MW
LayerCount: 2
Fore
SplineSet
10 656 m 1
 10 685 l 1
 37 683 64 682 100 682 c 0
 136 682 162 683 198 685 c 1
 198 656 l 1
 197 656 l 1
 195 656 150 656 150 651 c 1
 150 650 213 482 226 447 c 1
 310 447 l 1
 319 447 320 449 325 461 c 1
 384 607 388 632 388 639 c 0
 388 648 379 656 348 656 c 1
 348 685 l 1
 374 683 399 682 425 682 c 0
 446 682 465 683 489 685 c 1
 489 656 l 1
 488 656 486 655 485 655 c 1
 434 654 431 647 421 624 c 1
 417 617 360 464 354 447 c 1
 438 447 l 2
 450 447 459 448 460 442 c 0
 460 439 459 437 458 434 c 0
 456 429 451 428 443 428 c 2
 348 428 l 1
 345 428 345 429 344 425 c 1
 300 306 288 290 288 256 c 2
 288 230 l 1
 440 230 l 2
 448 230 459 228 459 220 c 0
 459 212 451 211 444 211 c 0
 442 211 441 212 440 212 c 2
 288 212 l 1
 288 39 l 1
 288 30 341 30 350 30 c 1
 351 30 l 1
 351 0 l 1
 318 2 284 3 249 3 c 0
 227 3 196 3 149 0 c 1
 149 30 l 1
 150 30 l 1
 159 30 212 30 212 39 c 1
 212 212 l 1
 60 212 l 2
 58 212 57 211 56 211 c 0
 49 211 40 212 40 220 c 0
 40 228 50 230 58 230 c 2
 212 230 l 1
 212 261 l 2
 212 277 210 289 161 410 c 0
 154 426 153 428 146 428 c 2
 59 428 l 2
 46 428 40 430 40 436 c 0
 40 442 43 441 46 444 c 1
 49 444 56 447 70 447 c 2
 146 447 l 1
 70 647 l 1
 67 655 19 656 10 656 c 1
235 428 m 1
 271 328 l 1
 310 428 l 1
 235 428 l 1
EndSplineSet
EndChar
StartChar: dieresis
Encoding: 168 168 133
Width: 500
Flags: MW
LayerCount: 2
Fore
SplineSet
294 606 m 0
 294 637 319 659 346 659 c 0
 374 659 399 637 399 606 c 0
 399 576 373 554 347 554 c 0
 316 554 294 578 294 606 c 0
99 606 m 0
 99 637 125 659 152 659 c 0
 179 659 204 637 204 606 c 0
 204 575 178 554 152 554 c 0
 121 554 99 580 99 606 c 0
EndSplineSet
EndChar
StartChar: logicalnot
Encoding: 172 172 129
Width: 500
Flags: MW
LayerCount: 2
Fore
SplineSet
56 336 m 0
 56 355 77 356 85 356 c 2
 409 356 l 2
 412 356 415 356 418 356 c 4
 435 354 440 345 440 323 c 2
 440 121 l 2
 440 107 437 91 420 91 c 0
 403 91 400 106 400 119 c 2
 400 316 l 1
 88 316 l 2
 72 316 56 319 56 336 c 0
EndSplineSet
EndChar
StartChar: acute
Encoding: 180 180 132
Width: 500
Flags: MW
LayerCount: 2
Fore
SplineSet
214 510 m 1
 340 633 345 642 364 642 c 0
 385 642 399 622 399 605 c 0
 399 582 392 582 270 513 c 0
 257 505 243 497 229 490 c 1
 214 510 l 1
EndSplineSet
EndChar
StartChar: periodcentered
Encoding: 183 183 136
Width: 500
Flags: MW
LayerCount: 2
Fore
SplineSet
198 242 m 0
 198 269 219 294 250 294 c 0
 277 294 302 273 302 242 c 0
 302 211 276 189 250 189 c 0
 219 189 198 215 198 242 c 0
EndSplineSet
EndChar
StartChar: onehalf
Encoding: 189 189 110
Width: 500
Flags: MW
LayerCount: 2
Fore
SplineSet
78 -195 m 1
 78 -149 l 2
 78 -129 85 -127 102 -116 c 0
 147 -87 185 -63 217 -42 c 0
 293 8 330 40 330 94 c 0
 330 156 283 199 219 199 c 0
 184 199 159 189 138 175 c 1
 161 171 183 154 183 123 c 0
 183 93 159 71 131 71 c 0
 103 71 78 91 78 125 c 0
 78 188 147 230 238 230 c 0
 344 230 422 176 422 95 c 0
 422 0 312 -28 241 -64 c 1
 146 -117 l 1
 273 -117 l 2
 305 -117 337 -116 353 -115 c 0
 368 -114 375 -112 381 -96 c 0
 386 -83 390 -60 397 -20 c 1
 422 -20 l 1
 394 -195 l 1
 78 -195 l 1
37 278 m 0
 37 296 54 298 69 298 c 2
 428 298 l 2
 434 298 441 298 446 297 c 0
 456 295 463 290 463 278 c 0
 463 270 460 258 434 258 c 2
 66 258 l 2
 42 258 37 270 37 278 c 0
98 701 m 1
 98 732 l 1
 204 732 240 754 261 765 c 0
 268 769 274 772 280 772 c 0
 297 772 296 756 296 740 c 2
 296 415 l 2
 296 396 300 384 310 378 c 4
 324 369 349 369 391 369 c 2
 403 369 l 1
 403 338 l 1
 353 340 303 341 253 341 c 0
 196 341 154 339 111 338 c 1
 111 369 l 1
 125 369 l 2
 166 369 190 371 204 377 c 0
 218 383 221 395 221 416 c 2
 221 716 l 1
 181 704 139 701 98 701 c 1
EndSplineSet
EndChar
StartChar: questiondown
Encoding: 191 191 109
Width: 500
Flags: MW
LayerCount: 2
Fore
SplineSet
70 -69 m 0
 70 5 116 28 146 60 c 0
 214 132 224 211 224 275 c 2
 224 290 l 2
 224 308 231 315 238 312 c 0
 244 309 249 309 250 293 c 0
 250 291 250 289 250 286 c 2
 250 280 l 2
 250 206 244 117 184 28 c 0
 166 2 154 -14 154 -75 c 0
 154 -81 154 -87 154 -93 c 4
 156 -144 166 -183 238 -183 c 0
 289 -183 354 -168 392 -115 c 1
 388 -115 l 2
 352 -115 338 -91 338 -69 c 0
 338 -43 360 -24 384 -24 c 0
 401 -24 430 -34 430 -73 c 0
 430 -152 340 -205 240 -205 c 0
 96 -205 70 -122 70 -69 c 0
184 447 m 0
 184 478 209 500 236 500 c 0
 263 500 288 478 288 447 c 0
 288 416 262 395 236 395 c 0
 205 395 184 421 184 447 c 0
EndSplineSet
EndChar
StartChar: Adieresis
Encoding: 196 196 95
Width: 500
Flags: MW
LayerCount: 2
Fore
SplineSet
156 237 m 1
 294 237 l 1
 225 531 l 1
 156 237 l 1
23 0 m 1
 23 29 l 1
 25 29 36 29 37 29 c 1
 77 30 82 41 87 61 c 2
 229 677 l 2
 233 694 235 702 250 702 c 0
 260 702 266 700 272 677 c 2
 419 37 l 1
 420 30 468 29 475 29 c 1
 477 29 l 1
 477 0 l 1
 455 3 408 3 384 3 c 0
 359 3 306 3 284 0 c 1
 284 29 l 1
 287 29 338 29 338 35 c 1
 338 36 338 37 338 38 c 1
 301 208 l 1
 149 208 l 1
 118 62 l 2
 118 61 116 50 116 49 c 0
 116 33 160 29 167 29 c 1
 167 0 l 1
 146 3 113 3 91 3 c 0
 72 3 44 1 23 0 c 1
295 813 m 0
 295 844 321 866 347 866 c 0
 379 866 400 840 400 814 c 0
 400 787 378 761 348 761 c 0
 322 761 295 783 295 813 c 0
100 814 m 0
 100 841 122 866 153 866 c 0
 180 866 205 845 205 814 c 0
 205 783 179 761 153 761 c 0
 122 761 100 787 100 814 c 0
EndSplineSet
EndChar
StartChar: Ccedilla
Encoding: 199 199 101
Width: 500
Flags: MW
LayerCount: 2
Fore
SplineSet
39 343 m 0
 39 548 134 699 281 699 c 0
 327 699 367 674 402 627 c 1
 440 689 l 2
 445 697 447 699 452 699 c 0
 462 699 462 690 462 671 c 2
 462 452 l 2
 462 427 462 425 447 425 c 0
 434 425 433 427 431 445 c 0
 418 576 360 670 293 670 c 0
 262 670 203 644 163 574 c 1
 127 511 122 410 122 343 c 0
 122 250 131 175 159 120 c 1
 193 53 250 16 294 16 c 0
 358 16 432 96 436 232 c 0
 437 248 441 248 449 248 c 0
 459 248 462 246 462 228 c 0
 462 115 396 -9 286 -13 c 1
 286 -54 l 1
 299 -57 368 -69 368 -126 c 0
 368 -200 242 -204 176 -204 c 2
 132 -204 l 1
 132 -181 l 1
 144 -181 l 2
 239 -181 298 -170 298 -126 c 0
 298 -104 281 -74 216 -71 c 1
 216 -2 l 1
 107 36 39 170 39 343 c 0
EndSplineSet
EndChar
StartChar: Ntilde
Encoding: 209 209 102
Width: 500
Flags: MW
LayerCount: 2
Fore
SplineSet
56 823 m 1
 87 857 110 891 166 891 c 0
 228 891 282 854 344 854 c 0
 381 854 402 867 428 892 c 1
 444 876 l 1
 413 841 389 807 334 807 c 0
 272 807 217 845 156 845 c 0
 119 845 98 832 72 807 c 1
 56 823 l 1
22 0 m 1
 22 29 l 1
 24 29 37 29 38 29 c 1
 53 30 56 31 68 35 c 0
 83 41 83 46 83 67 c 2
 83 652 l 1
 83 656 84 655 81 656 c 1
 79 656 27 657 25 657 c 1
 22 657 l 1
 22 685 l 1
 147 685 l 2
 159 685 159 684 165 672 c 2
 389 194 l 1
 389 619 l 2
 389 640 389 644 373 650 c 0
 364 653 355 655 344 656 c 1
 343 656 330 657 328 657 c 1
 328 685 l 1
 351 682 380 682 403 682 c 0
 425 682 456 682 478 685 c 1
 478 657 l 1
 476 657 463 656 462 656 c 1
 447 655 445 655 433 651 c 0
 418 645 417 640 417 619 c 2
 417 31 l 2
 417 9 417 0 403 0 c 0
 395 0 394 1 388 13 c 2
 112 617 l 1
 112 618 112 618 111 619 c 1
 111 67 l 2
 111 46 112 42 127 36 c 0
 136 33 146 30 157 29 c 1
 158 29 171 29 173 29 c 1
 173 0 l 1
 150 3 120 3 97 3 c 0
 75 3 44 3 22 0 c 1
EndSplineSet
EndChar
StartChar: Odieresis
Encoding: 214 214 111
Width: 500
Flags: MW
LayerCount: 2
Fore
SplineSet
100 813 m 0
 100 844 125 866 152 866 c 0
 179 866 206 844 206 813 c 0
 206 783 179 761 154 761 c 0
 122 761 100 785 100 813 c 0
294 813 m 0
 294 844 319 866 346 866 c 0
 372 866 400 844 400 813 c 0
 400 783 374 761 348 761 c 0
 316 761 294 785 294 813 c 0
37 339 m 0
 37 548 121 699 251 699 c 0
 378 699 464 553 464 339 c 0
 464 135 381 -13 250 -13 c 0
 121 -13 37 132 37 339 c 0
122 354 m 0
 122 265 128 192 147 132 c 0
 172 54 215 11 250 11 c 0
 282 11 324 49 351 123 c 0
 375 189 379 276 379 354 c 0
 379 429 374 506 352 567 c 0
 327 634 286 677 250 677 c 0
 216 677 175 637 150 572 c 1
 125 508 122 425 122 354 c 0
EndSplineSet
EndChar
StartChar: Udieresis
Encoding: 220 220 112
Width: 500
Flags: MW
LayerCount: 2
Fore
SplineSet
22 657 m 1
 22 685 l 1
 44 682 98 682 123 682 c 0
 148 682 202 682 224 685 c 1
 224 657 l 1
 221 657 l 1
 212 657 161 654 161 647 c 1
 161 223 l 2
 161 140 176 16 263 16 c 0
 325 16 388 86 388 233 c 2
 388 619 l 2
 388 640 387 645 371 651 c 0
 361 654 351 656 340 656 c 1
 339 656 326 657 325 657 c 1
 325 685 l 1
 348 682 378 682 402 682 c 0
 424 682 456 682 478 685 c 1
 478 657 l 1
 477 657 464 656 463 656 c 1
 447 655 444 655 432 651 c 0
 416 645 416 640 416 618 c 2
 416 234 l 2
 416 216 415 202 414 188 c 0
 404 80 353 -13 261 -13 c 0
 148 -13 85 96 85 230 c 2
 85 647 l 1
 85 654 34 657 25 657 c 1
 22 657 l 1
295 813 m 0
 295 844 321 866 348 866 c 0
 379 866 400 840 400 814 c 0
 400 787 378 761 348 761 c 0
 322 761 295 783 295 813 c 0
100 814 m 0
 100 841 122 866 153 866 c 0
 180 866 205 845 205 814 c 0
 205 783 179 761 153 761 c 0
 122 761 100 787 100 814 c 0
EndSplineSet
EndChar
StartChar: agrave
Encoding: 224 224 123
Width: 500
Flags: MW
LayerCount: 2
Fore
SplineSet
178 605 m 0
 178 622 191 642 212 642 c 0
 222 642 229 639 248 621 c 4
 267 603 299 570 362 510 c 1
 348 490 l 1
 330 499 258 540 214 565 c 0
 205 570 178 581 178 605 c 0
72 95 m 0
 72 139 97 191 172 225 c 1
 235 255 305 258 356 261 c 1
 356 298 l 2
 356 387 299 426 250 426 c 0
 218 426 169 415 142 380 c 1
 188 379 194 346 194 334 c 0
 194 308 176 288 148 288 c 0
 122 288 102 305 102 335 c 0
 102 357 109 377 122 394 c 0
 149 427 197 448 252 448 c 0
 300 448 351 432 390 393 c 0
 426 356 426 317 426 275 c 2
 426 75 l 2
 426 70 429 25 462 25 c 0
 475 25 488 27 488 11 c 0
 488 -6 476 -6 456 -6 c 2
 442 -6 l 2
 395 -6 368 36 364 76 c 1
 345 29 298 -11 232 -11 c 0
 169 -11 72 14 72 95 c 0
150 96 m 0
 150 46 191 11 240 11 c 0
 285 11 356 45 356 140 c 2
 356 240 l 1
 191 234 150 151 150 96 c 0
EndSplineSet
EndChar
StartChar: acircumflex
Encoding: 226 226 118
Width: 500
Flags: MW
LayerCount: 2
Fore
SplineSet
136 500 m 5
 270 649 l 5
 271 649 l 5
 404 500 l 5
 386 482 l 5
 271 596 l 5
 270 596 l 5
 154 482 l 5
 136 500 l 5
72 95 m 0
 72 139 97 191 172 225 c 1
 235 255 305 258 356 261 c 1
 356 298 l 2
 356 387 299 426 250 426 c 0
 218 426 169 415 142 380 c 1
 188 379 194 346 194 334 c 0
 194 308 176 288 148 288 c 0
 122 288 102 305 102 335 c 0
 102 357 109 377 122 394 c 0
 149 427 197 448 252 448 c 0
 300 448 351 432 390 393 c 0
 426 356 426 317 426 275 c 2
 426 75 l 2
 426 70 429 25 462 25 c 0
 475 25 488 27 488 11 c 0
 488 -6 476 -6 456 -6 c 2
 442 -6 l 2
 395 -6 368 36 364 76 c 1
 345 29 298 -11 232 -11 c 0
 169 -11 72 14 72 95 c 0
150 96 m 0
 150 46 191 11 240 11 c 0
 285 11 356 45 356 140 c 2
 356 240 l 1
 191 234 150 151 150 96 c 0
EndSplineSet
EndChar
StartChar: adieresis
Encoding: 228 228 113
Width: 500
Flags: MW
LayerCount: 2
Fore
SplineSet
120 606 m 0
 120 637 145 659 172 659 c 0
 198 659 226 637 226 606 c 0
 226 575 200 554 174 554 c 0
 143 554 120 578 120 606 c 0
314 606 m 0
 314 637 341 659 368 659 c 0
 395 659 420 637 420 606 c 0
 420 575 394 554 368 554 c 0
 337 554 314 580 314 606 c 0
72 95 m 0
 72 139 97 191 172 225 c 1
 235 255 305 258 356 261 c 1
 356 298 l 2
 356 387 299 426 250 426 c 0
 218 426 169 415 142 380 c 1
 188 379 194 346 194 334 c 0
 194 308 176 288 148 288 c 0
 122 288 102 305 102 335 c 0
 102 357 109 377 122 394 c 0
 149 427 197 448 252 448 c 0
 300 448 351 432 390 393 c 0
 426 356 426 317 426 275 c 2
 426 75 l 2
 426 70 429 25 462 25 c 0
 475 25 488 27 488 11 c 0
 488 -6 476 -6 456 -6 c 2
 442 -6 l 2
 395 -6 368 36 364 76 c 1
 345 29 298 -11 232 -11 c 0
 169 -11 72 14 72 95 c 0
150 96 m 0
 150 46 191 11 240 11 c 0
 285 11 356 45 356 140 c 2
 356 240 l 1
 191 234 150 151 150 96 c 0
EndSplineSet
EndChar
StartChar: ccedilla
Encoding: 231 231 100
Width: 500
Flags: MW
LayerCount: 2
Fore
SplineSet
60 216 m 0
 60 340 151 448 276 448 c 0
 353 448 430 409 430 341 c 0
 430 311 410 294 384 294 c 0
 356 294 338 314 338 340 c 0
 338 353 343 383 384 386 c 1
 349 422 287 423 278 423 c 0
 225 423 142 381 142 218 c 0
 142 57 231 14 284 14 c 0
 321 14 385 26 414 119 c 0
 416 125 419 129 428 129 c 0
 431 129 440 129 440 119 c 0
 440 109 410 -4 286 -11 c 1
 286 -54 l 1
 299 -57 368 -69 368 -126 c 0
 368 -200 242 -204 176 -204 c 2
 132 -204 l 1
 132 -181 l 1
 144 -181 l 2
 239 -181 298 -170 298 -126 c 0
 298 -104 281 -74 216 -71 c 1
 216 -3 l 1
 127 24 60 110 60 216 c 0
EndSplineSet
EndChar
StartChar: egrave
Encoding: 232 232 124
Width: 500
Flags: MW
LayerCount: 2
Fore
SplineSet
158 605 m 0
 158 622 171 642 192 642 c 0
 202 642 209 639 228 621 c 4
 247 603 279 570 342 510 c 1
 328 490 l 1
 310 499 238 540 194 565 c 0
 185 570 158 581 158 605 c 0
56 220 m 0
 56 345 148 448 264 448 c 0
 313 448 352 433 380 409 c 0
 424 371 444 312 444 252 c 0
 444 231 440 231 418 231 c 2
 140 231 l 1
 140 195 140 129 170 81 c 0
 193 44 232 14 282 14 c 0
 292 14 383 14 418 117 c 0
 420 125 421 131 430 131 c 0
 435 131 444 129 444 119 c 0
 444 100 398 -11 276 -11 c 0
 161 -11 56 86 56 220 c 0
140 252 m 1
 378 252 l 1
 378 291 367 426 264 426 c 0
 243 426 201 416 172 371 c 0
 155 345 142 307 140 252 c 1
EndSplineSet
EndChar
StartChar: edieresis
Encoding: 235 235 114
Width: 500
Flags: MW
LayerCount: 2
Fore
SplineSet
100 606 m 0
 100 637 125 659 152 659 c 0
 178 659 206 637 206 606 c 0
 206 575 180 554 154 554 c 0
 123 554 100 578 100 606 c 0
294 606 m 0
 294 637 321 659 348 659 c 0
 375 659 400 637 400 606 c 0
 400 575 374 554 348 554 c 0
 317 554 294 580 294 606 c 0
56 220 m 0
 56 345 148 448 264 448 c 0
 313 448 352 433 380 409 c 4
 424 371 444 312 444 252 c 0
 444 231 440 231 418 231 c 2
 140 231 l 1
 140 195 140 129 170 81 c 0
 193 44 232 14 282 14 c 0
 292 14 383 14 418 117 c 0
 420 125 421 131 430 131 c 0
 435 131 444 129 444 119 c 0
 444 100 398 -11 276 -11 c 0
 161 -11 56 86 56 220 c 0
140 252 m 1
 378 252 l 1
 378 291 367 426 264 426 c 0
 243 426 201 416 172 371 c 0
 155 345 142 307 140 252 c 1
EndSplineSet
EndChar
StartChar: iacute
Encoding: 237 237 98
Width: 500
Flags: MW
LayerCount: 2
Fore
SplineSet
158 510 m 1
 284 633 289 642 308 642 c 0
 329 642 342 622 342 605 c 0
 342 582 336 582 214 513 c 0
 201 505 186 497 172 490 c 1
 158 510 l 1
143 0 m 5
 143 31 l 5
 210 31 221 31 221 76 c 6
 221 345 l 6
 221 394 212 400 147 400 c 5
 147 431 l 5
 287 442 l 5
 287 75 l 6
 287 36 291 31 357 31 c 5
 357 0 l 5
 323 1 288 3 253 3 c 4
 229 3 175 1 143 0 c 5
EndSplineSet
EndChar
StartChar: icircumflex
Encoding: 238 238 120
Width: 500
Flags: MW
LayerCount: 2
Fore
SplineSet
116 500 m 1
 250 649 l 1
 251 649 l 1
 384 500 l 1
 366 482 l 1
 251 596 l 1
 250 596 l 1
 134 482 l 1
 116 500 l 1
143 0 m 5
 143 31 l 5
 210 31 221 31 221 76 c 6
 221 345 l 6
 221 394 212 400 147 400 c 5
 147 431 l 5
 287 442 l 5
 287 75 l 6
 287 36 291 31 357 31 c 5
 357 0 l 5
 323 1 288 3 253 3 c 4
 229 3 175 1 143 0 c 5
EndSplineSet
EndChar
StartChar: idieresis
Encoding: 239 239 115
Width: 500
Flags: MW
LayerCount: 2
Fore
SplineSet
100 606 m 0
 100 637 125 659 152 659 c 0
 178 659 206 637 206 606 c 0
 206 575 180 554 154 554 c 0
 123 554 100 578 100 606 c 0
294 606 m 0
 294 637 321 659 348 659 c 0
 375 659 400 637 400 606 c 0
 400 575 374 554 348 554 c 0
 317 554 294 580 294 606 c 0
143 0 m 5
 143 31 l 5
 210 31 221 31 221 76 c 6
 221 345 l 6
 221 394 212 400 147 400 c 5
 147 431 l 5
 287 442 l 5
 287 75 l 6
 287 36 291 31 357 31 c 5
 357 0 l 5
 323 1 288 3 253 3 c 4
 229 3 175 1 143 0 c 5
EndSplineSet
EndChar
StartChar: ntilde
Encoding: 241 241 103
Width: 500
Flags: MW
LayerCount: 2
Fore
SplineSet
84 551 m 1
 118 591 149 630 192 630 c 0
 239 630 273 583 320 583 c 0
 352 583 375 605 400 631 c 1
 416 616 l 1
 382 577 351 537 308 537 c 0
 262 537 227 584 180 584 c 0
 141 584 109 546 100 537 c 1
 84 551 l 1
28 0 m 1
 28 31 l 1
 95 31 86 31 86 76 c 2
 86 344 l 2
 86 393 98 400 28 400 c 1
 28 431 l 1
 150 442 l 1
 150 337 l 1
 178 399 205 442 278 442 c 0
 336 442 368 422 382 405 c 0
 413 369 414 338 414 252 c 2
 414 61 l 1
 415 31 420 31 472 31 c 1
 472 0 l 1
 438 1 406 3 380 3 c 0
 353 3 321 1 286 0 c 1
 286 31 l 1
 353 31 344 31 344 76 c 2
 344 309 l 2
 344 366 333 420 270 420 c 0
 206 420 156 364 156 260 c 2
 156 76 l 2
 156 31 147 31 214 31 c 1
 214 0 l 1
 180 1 148 3 122 3 c 0
 95 3 63 1 28 0 c 1
EndSplineSet
EndChar
StartChar: oacute
Encoding: 243 243 106
Width: 500
Flags: MW
LayerCount: 2
Fore
SplineSet
158 510 m 1
 284 633 289 642 308 642 c 0
 329 642 342 622 342 605 c 0
 342 582 336 582 214 513 c 0
 201 505 186 497 172 490 c 1
 158 510 l 1
28 214 m 0
 28 339 125 448 250 448 c 0
 371 448 471 342 471 214 c 0
 471 87 370 -11 249 -11 c 0
 132 -11 28 85 28 214 c 0
111 222 m 0
 111 186 111 125 136 81 c 0
 163 35 207 14 250 14 c 0
 300 14 344 43 366 88 c 0
 388 132 388 186 388 222 c 0
 388 260 388 318 362 361 c 0
 336 404 293 426 249 426 c 0
 209 426 162 405 135 359 c 1
 111 315 111 261 111 222 c 0
EndSplineSet
EndChar
StartChar: odieresis
Encoding: 246 246 116
Width: 500
Flags: MW
LayerCount: 2
Fore
SplineSet
100 606 m 0
 100 637 125 659 152 659 c 0
 178 659 206 637 206 606 c 0
 206 575 180 554 154 554 c 0
 123 554 100 578 100 606 c 0
294 606 m 0
 294 637 321 659 348 659 c 0
 375 659 400 637 400 606 c 0
 400 575 374 554 348 554 c 0
 317 554 294 580 294 606 c 0
28 214 m 0
 28 339 125 448 250 448 c 0
 371 448 471 342 471 214 c 0
 471 87 370 -11 249 -11 c 0
 132 -11 28 85 28 214 c 0
111 222 m 0
 111 186 111 125 136 81 c 0
 163 35 207 14 250 14 c 0
 300 14 344 43 366 88 c 0
 388 132 388 186 388 222 c 0
 388 260 388 318 362 361 c 0
 336 404 293 426 249 426 c 0
 209 426 162 405 135 359 c 1
 111 315 111 261 111 222 c 0
EndSplineSet
EndChar
StartChar: uacute
Encoding: 250 250 107
Width: 500
Flags: MW
LayerCount: 2
Fore
SplineSet
158 510 m 1
 284 633 289 642 308 642 c 0
 329 642 342 622 342 605 c 0
 342 582 336 582 214 513 c 0
 201 505 186 497 172 490 c 1
 158 510 l 1
32 400 m 1
 32 431 l 1
 159 442 l 1
 159 110 l 2
 159 58 163 11 247 11 c 0
 320 11 368 79 368 166 c 2
 368 344 l 2
 368 393 380 400 310 400 c 1
 310 431 l 1
 437 442 l 1
 437 87 l 2
 437 38 425 31 495 31 c 1
 495 0 l 1
 371 -11 l 1
 371 79 l 1
 342 17 298 -11 242 -11 c 0
 90 -11 90 80 90 158 c 2
 90 308 l 2
 90 397 110 400 32 400 c 1
EndSplineSet
EndChar
StartChar: ucircumflex
Encoding: 251 251 122
Width: 500
Flags: MW
LayerCount: 2
Fore
SplineSet
116 500 m 1
 250 649 l 1
 251 649 l 1
 384 500 l 1
 366 482 l 1
 251 596 l 1
 250 596 l 1
 134 482 l 1
 116 500 l 1
32 400 m 1
 32 431 l 1
 159 442 l 1
 159 110 l 2
 159 58 163 11 247 11 c 0
 320 11 368 79 368 166 c 2
 368 344 l 2
 368 393 380 400 310 400 c 1
 310 431 l 1
 437 442 l 1
 437 87 l 2
 437 38 425 31 495 31 c 1
 495 0 l 1
 371 -11 l 1
 371 79 l 1
 342 17 298 -11 242 -11 c 0
 90 -11 90 80 90 158 c 2
 90 308 l 2
 90 397 110 400 32 400 c 1
EndSplineSet
EndChar
StartChar: udieresis
Encoding: 252 252 117
Width: 500
Flags: MW
LayerCount: 2
Fore
SplineSet
100 606 m 0
 100 637 125 659 152 659 c 0
 178 659 206 637 206 606 c 0
 206 575 180 554 154 554 c 0
 123 554 100 578 100 606 c 0
294 606 m 0
 294 637 321 659 348 659 c 0
 375 659 400 637 400 606 c 0
 400 575 374 554 348 554 c 0
 317 554 294 580 294 606 c 0
32 400 m 1
 32 431 l 1
 159 442 l 1
 159 110 l 2
 159 58 163 11 247 11 c 0
 320 11 368 79 368 166 c 2
 368 344 l 2
 368 393 380 400 310 400 c 1
 310 431 l 1
 437 442 l 1
 437 87 l 2
 437 38 425 31 495 31 c 1
 495 0 l 1
 371 -11 l 1
 371 79 l 1
 342 17 298 -11 242 -11 c 0
 90 -11 90 80 90 158 c 2
 90 308 l 2
 90 397 110 400 32 400 c 1
EndSplineSet
EndChar
StartChar: quoteleft
Encoding: 8216 8216 135
Width: 500
Flags: MW
LayerCount: 2
Fore
SplineSet
296 499 m 0
 296 607 370 692 389 692 c 0
 394 692 399 688 399 682 c 0
 399 666 318 616 318 500 c 0
 318 493 319 485 320 478 c 1
 336 496 350 499 363 499 c 0
 394 499 415 476 415 447 c 0
 415 419 394 394 363 394 c 0
 323 394 296 434 296 499 c 0
EndSplineSet
EndChar
StartChar: quotedblleft
Encoding: 8220 8220 134
Width: 500
Flags: MW
LayerCount: 2
Fore
SplineSet
296 499 m 0
 296 607 370 692 389 692 c 0
 394 692 399 688 399 682 c 0
 399 666 318 616 318 500 c 0
 318 493 319 485 320 478 c 1
 336 496 350 499 363 499 c 0
 394 499 415 476 415 447 c 0
 415 419 394 394 363 394 c 0
 323 394 296 434 296 499 c 0
85 499 m 0
 85 609 161 692 178 692 c 0
 184 692 188 687 188 682 c 0
 188 667 108 616 108 501 c 0
 108 493 108 486 109 479 c 1
 125 497 139 500 152 500 c 0
 183 500 205 476 205 447 c 0
 205 419 184 394 153 394 c 0
 112 394 85 435 85 499 c 0
EndSplineSet
EndChar
StartChar: overline
Encoding: 8254 8254 94
Width: 500
Flags: MW
LayerCount: 2
Fore
SplineSet
69 649 m 5
 69 681 l 5
 429 681 l 1
 429 649 l 1
 69 649 l 5
EndSplineSet
EndChar
StartChar: celsius
Encoding: 8451 8451 137
Width: 500
Flags: MW
LayerCount: 2
Fore
SplineSet
22 568 m 0
 22 632 46 684 79 684 c 0
 113 684 137 629 137 568 c 0
 137 503 112 453 79 453 c 0
 45 453 22 504 22 568 c 0
45 568 m 0
 45 528 60 489 79 489 c 0
 99 489 114 527 114 568 c 0
 114 608 98 648 79 648 c 0
 59 648 45 609 45 568 c 0
144 342 m 0
 144 546 223 703 326 703 c 0
 370 703 398 662 420 622 c 1
 447 692 l 2
 451 702 453 703 456 703 c 0
 463 703 462 695 462 677 c 2
 462 447 l 2
 462 425 462 422 452 422 c 0
 444 422 444 424 443 440 c 0
 433 580 387 677 333 677 c 0
 311 677 266 654 235 575 c 1
 213 520 203 436 203 342 c 0
 203 242 213 169 232 118 c 1
 262 35 308 7 334 7 c 0
 387 7 443 93 447 233 c 0
 447 245 448 249 454 249 c 0
 461 249 462 244 462 231 c 0
 462 115 412 -19 326 -19 c 0
 224 -19 144 136 144 342 c 0
EndSplineSet
EndChar
StartChar: minus
Encoding: 8722 8722 131
Width: 500
Flags: MW
LayerCount: 2
Fore
SplineSet
39 250 m 0
 39 261 51 261 77 261 c 2
 424 261 l 1
 427 261 432 262 438 262 c 0
 449 262 461 260 461 250 c 0
 461 240 449 238 437 238 c 0
 432 238 427 239 424 239 c 2
 77 239 l 1
 73 239 68 238 62 238 c 0
 51 238 39 240 39 250 c 0
EndSplineSet
EndChar
StartChar: lthorizform
Encoding: 9472 9472 138
Width: 500
Flags: W
LayerCount: 2
Fore
SplineSet
0 277 m 1
 0 323 l 1
 500 323 l 1
 500 277 l 1
 0 277 l 1
EndSplineSet
EndChar
StartChar: ltvertform
Encoding: 9474 9474 140
Width: 500
Flags: W
LayerCount: 2
Fore
SplineSet
227 -200 m 1
 227 800 l 1
 273 800 l 1
 273 -200 l 1
 227 -200 l 1
EndSplineSet
EndChar
StartChar: ltdashtriphorizform
Encoding: 9476 9476 142
Width: 500
VWidth: 940
Flags: W
LayerCount: 2
Fore
SplineSet
30 277 m 1
 30 323 l 1
 137 323 l 1
 137 277 l 1
 30 277 l 1
196.5 277 m 1
 196.5 323 l 1
 303.5 323 l 1
 303.5 277 l 1
 196.5 277 l 1
363 277 m 1
 363 323 l 1
 470 323 l 1
 470 277 l 1
 363 277 l 1
EndSplineSet
EndChar
StartChar: hvdashtripvertform
Encoding: 9479 9479 145
Width: 500
Flags: W
LayerCount: 2
Fore
SplineSet
177 74 m 1
 323 74 l 1
 323 -140 l 1
 177 -140 l 1
 177 74 l 1
177 193 m 1
 177 407 l 1
 323 407 l 1
 323 193 l 1
 177 193 l 1
177 526 m 1
 177 740 l 1
 323 740 l 1
 323 526 l 1
 177 526 l 1
EndSplineSet
EndChar
StartChar: ltdnrtform
Encoding: 9484 9484 150
Width: 500
VWidth: 940
Flags: W
LayerCount: 2
Fore
SplineSet
227 -200 m 1
 227 323 l 1
 500 323 l 1
 500 277 l 1
 273 277 l 1
 273 -200 l 1
 227 -200 l 1
EndSplineSet
EndChar
StartChar: upltrthvform
Encoding: 9493 9493 159
Width: 500
Flags: W
LayerCount: 2
Fore
SplineSet
227 227 m 1
 227 800 l 1
 273 800 l 1
 273 373 l 1
 500 373 l 1
 500 227 l 1
 227 227 l 1
EndSplineSet
EndChar
StartChar: uphvrtltform
Encoding: 9494 9494 160
Width: 500
Flags: W
LayerCount: 2
Fore
SplineSet
177 277 m 1
 177 800 l 1
 323 800 l 1
 323 323 l 1
 500 323 l 1
 500 277 l 1
 177 277 l 1
EndSplineSet
EndChar
StartChar: hvuprtform
Encoding: 9495 9495 161
Width: 500
Flags: W
LayerCount: 2
Fore
SplineSet
177 227 m 1
 177 800 l 1
 323 800 l 1
 323 373 l 1
 500 373 l 1
 500 227 l 1
 177 227 l 1
EndSplineSet
EndChar
StartChar: hvupleftform
Encoding: 9499 9499 165
Width: 500
VWidth: 940
Flags: W
LayerCount: 2
Fore
SplineSet
2.84217094304e-14 227 m 1
 0 373 l 1
 177 373 l 1
 177 800 l 1
 323 800 l 1
 323 227 l 1
 2.84217094304e-14 227 l 1
EndSplineSet
EndChar
StartChar: uphvrtdnltform
Encoding: 9502 9502 168
Width: 500
VWidth: 940
Flags: W
LayerCount: 2
Fore
SplineSet
177 277 m 1
 177 800 l 1
 323 800 l 1
 323 323 l 1
 500 323 l 1
 500 277 l 1
 273 277 l 1
 273 -200 l 1
 227 -200 l 1
 227 277 l 1
 177 277 l 1
EndSplineSet
EndChar
StartChar: verthvrtltform
Encoding: 9504 9504 170
Width: 500
VWidth: 940
Flags: W
LayerCount: 2
Fore
SplineSet
177 -200 m 1
 177 800 l 1
 323 800 l 1
 323 323 l 1
 500 323 l 1
 500 277 l 1
 323 277 l 1
 323 -200 l 1
 177 -200 l 1
EndSplineSet
EndChar
StartChar: hvvertrtform
Encoding: 9507 9507 173
Width: 500
VWidth: 940
Flags: W
LayerCount: 2
Fore
SplineSet
177 -200 m 1
 177 800 l 1
 323 800 l 1
 323 373 l 1
 500 373 l 1
 500 227 l 1
 323 227 l 1
 323 -200 l 1
 177 -200 l 1
EndSplineSet
EndChar
StartChar: uphvleftdnltform
Encoding: 9510 9510 176
Width: 500
Flags: W
LayerCount: 2
Fore
SplineSet
0 277 m 1
 0 323 l 1
 210 323 l 1
 210 800 l 1
 357 800 l 1
 357 277 l 1
 307 277 l 1
 307 -200 l 1
 260 -200 l 1
 260 277 l 1
 0 277 l 1
EndSplineSet
EndChar
StartChar: verthvleftltform
Encoding: 9512 9512 178
Width: 500
VWidth: 940
Flags: W
LayerCount: 2
Fore
SplineSet
0 277 m 1
 0 323 l 1
 177 323 l 1
 177 800 l 1
 323 800 l 1
 323 -200 l 1
 177 -200 l 1
 177 277 l 1
 0 277 l 1
EndSplineSet
EndChar
StartChar: dnltleftuphvform
Encoding: 9513 9513 179
Width: 500
VWidth: 940
Flags: W
LayerCount: 2
Fore
SplineSet
0 227 m 1
 0 373 l 1
 177 373 l 1
 177 800 l 1
 323 800 l 1
 323 227 l 1
 273 227 l 1
 273 -200 l 1
 227 -200 l 1
 227 227 l 1
 0 227 l 1
EndSplineSet
EndChar
StartChar: upltleftdnhvform
Encoding: 9514 9514 180
Width: 500
Flags: W
LayerCount: 2
Fore
SplineSet
0 227 m 1
 1.42108547152e-14 373 l 1
 227 373 l 1
 227 800 l 1
 273 800 l 1
 273 373 l 1
 323 373 l 1
 323 -200 l 1
 177 -200 l 1
 177 227 l 1
 0 227 l 1
EndSplineSet
EndChar
StartChar: ltdnhorizform
Encoding: 9516 9516 182
Width: 500
Flags: W
LayerCount: 2
Fore
SplineSet
0 277 m 1
 0 323 l 1
 500 323 l 1
 500 277 l 1
 273 277 l 1
 273 -200 l 1
 227 -200 l 1
 227 277 l 1
 0 277 l 1
EndSplineSet
EndChar
StartChar: rthvleftdnltform
Encoding: 9518 9518 184
Width: 500
VWidth: 940
Flags: W
LayerCount: 2
Fore
SplineSet
0 277 m 1
 1.42108547152e-14 323 l 1
 227 323 l 1
 227 373 l 1
 500 373 l 1
 500 227 l 1
 273 227 l 1
 273 -200 l 1
 227 -200 l 1
 227 277 l 1
 0 277 l 1
EndSplineSet
EndChar
StartChar: dnhvhorizltform
Encoding: 9520 9520 186
Width: 500
Flags: W
LayerCount: 2
Fore
SplineSet
0 277 m 1
 0 323 l 1
 500 323 l 1
 500 277 l 1
 323 277 l 1
 323 -200 l 1
 177 -200 l 1
 177 277 l 1
 0 277 l 1
EndSplineSet
EndChar
StartChar: rtltrtdnhvform
Encoding: 9521 9521 187
Width: 500
Flags: W
LayerCount: 2
Fore
SplineSet
0 227 m 1
 0 373 l 1
 323 373 l 1
 323 323 l 1
 500 323 l 1
 500 277 l 1
 323 277 l 1
 323 -200 l 1
 177 -200 l 1
 177 227 l 1
 0 227 l 1
EndSplineSet
EndChar
StartChar: lefthvrtupltform
Encoding: 9525 9525 191
Width: 500
VWidth: 940
Flags: W
LayerCount: 2
Fore
SplineSet
0 227 m 1
 1.42108547152e-14 373 l 1
 227 373 l 1
 227 800 l 1
 273 800 l 1
 273 323 l 1
 500 323 l 1
 500 277 l 1
 273 277 l 1
 273 227 l 1
 0 227 l 1
EndSplineSet
EndChar
StartChar: rthvleftupltform
Encoding: 9526 9526 192
Width: 500
Flags: W
LayerCount: 2
Fore
SplineSet
0 277 m 1
 1.42108547152e-14 323 l 1
 227 323 l 1
 227 800 l 1
 273 800 l 1
 273 373 l 1
 500 373 l 1
 500 227 l 1
 227 227 l 1
 227 277 l 1
 0 277 l 1
EndSplineSet
EndChar
StartChar: ltverthorizform
Encoding: 9532 9532 198
Width: 500
Flags: W
LayerCount: 2
Fore
SplineSet
0 277 m 1
 1.42108547152e-14 323 l 1
 227 323 l 1
 227 800 l 1
 273 800 l 1
 273 323 l 1
 500 323 l 1
 500 277 l 1
 273 277 l 1
 273 -200 l 1
 227 -200 l 1
 227 277 l 1
 0 277 l 1
EndSplineSet
EndChar
StartChar: lefthvrtvertltform
Encoding: 9533 9533 199
Width: 500
Flags: W
LayerCount: 2
Fore
SplineSet
0 227 m 1
 1.42108547152e-14 373 l 1
 227 373 l 1
 227 800 l 1
 273 800 l 1
 273 323 l 1
 500 323 l 1
 500 277 l 1
 273 277 l 1
 273 -200 l 1
 227 -200 l 1
 227 227 l 1
 0 227 l 1
EndSplineSet
EndChar
StartChar: vertlthorizhvform
Encoding: 9535 9535 201
Width: 500
VWidth: 940
Flags: W
LayerCount: 2
Fore
SplineSet
0 227 m 1
 1.42108547152e-14 373 l 1
 227 373 l 1
 227 800 l 1
 273 800 l 1
 273 373 l 1
 500 373 l 1
 500 227 l 1
 273 227 l 1
 273 -200 l 1
 227 -200 l 1
 227 227 l 1
 0 227 l 1
EndSplineSet
EndChar
StartChar: verthvhorizltform
Encoding: 9538 9538 204
Width: 500
Flags: W
LayerCount: 2
Fore
SplineSet
0 277 m 1
 0 323 l 1
 177 323 l 1
 177 800 l 1
 323 800 l 1
 323 323 l 1
 500 323 l 1
 500 277 l 1
 323 277 l 1
 323 -200 l 1
 177 -200 l 1
 177 277 l 1
 0 277 l 1
EndSplineSet
EndChar
StartChar: rtdnhvleftupltform
Encoding: 9542 9542 208
Width: 500
VWidth: 940
Flags: W
LayerCount: 2
Fore
SplineSet
0 277 m 1
 0 323 l 1
 177 323 l 1
 177 373 l 1
 227 373 l 1
 227 800 l 1
 273 800 l 1
 273 373 l 1
 500 373 l 1
 500 227 l 1
 323 227 l 1
 323 -200 l 1
 177 -200 l 1
 177 277 l 1
 0 277 l 1
EndSplineSet
EndChar
StartChar: dnltuphorizhvform
Encoding: 9543 9543 209
Width: 500
Flags: W
LayerCount: 2
Fore
SplineSet
0 227 m 1
 0 373 l 1
 177 373 l 1
 177 800 l 1
 323 800 l 1
 323 373 l 1
 500 373 l 1
 500 227 l 1
 273 227 l 1
 273 -200 l 1
 227 -200 l 1
 227 227 l 1
 0 227 l 1
EndSplineSet
EndChar
StartChar: hvverthorizform
Encoding: 9547 9547 213
Width: 500
Flags: W
LayerCount: 2
Fore
SplineSet
0 227 m 1
 0 373 l 1
 177 373 l 1
 177 800 l 1
 323 800 l 1
 323 373 l 1
 500 373 l 1
 500 227 l 1
 323 227 l 1
 323 -200 l 1
 177 -200 l 1
 177 227 l 1
 0 227 l 1
EndSplineSet
EndChar
StartChar: male
Encoding: 9794 9794 215
Width: 500
Flags: W
LayerCount: 2
Fore
SplineSet
222 38 m 0
 308 38 372 107 372 193 c 0
 372 279 303 343 217 343 c 4
 131 343 67 274 67 188 c 0
 67 102 136 38 222 38 c 0
19 189 m 0
 19 300 103 390 216 390 c 0
 222 390 229 390 235 389 c 1
 280 611 l 1
 92 486 l 1
 65 525 l 1
 320 695 l 1
 490 440 l 1
 450 414 l 1
 325 602 l 1
 281 380 l 1
 355 357 420 284 420 192 c 0
 420 80 334 -10 221 -10 c 0
 109 -10 19 76 19 189 c 0
EndSplineSet
Colour: ff
EndChar
StartChar: zero.slash
Encoding: 63032 63032 127
Width: 500
Flags: MW
LayerCount: 2
Fore
SplineSet
355 568 m 1
 160 50 l 1
 186 12 222 0 249 0 c 0
 294 0 351 30 366 125 c 0
 377 189 377 257 377 332 c 0
 377 395 377 471 367 527 c 0
 364 543 360 556 355 568 c 1
122 332 m 0
 122 273 122 181 133 121 c 0
 136 104 141 90 146 77 c 1
 340 595 l 1
 312 635 272 644 249 644 c 0
 224 644 149 635 130 516 c 0
 122 462 122 396 122 332 c 0
39 320 m 0
 39 400 44 478 76 547 c 1
 117 640 190 666 250 666 c 0
 292 666 374 650 420 554 c 0
 455 480 460 400 460 320 c 0
 460 241 455 163 423 94 c 0
 379 -1 303 -22 249 -22 c 0
 200 -22 127 -2 84 79 c 0
 43 155 39 245 39 320 c 0
EndSplineSet
EndChar
